<svg  xmlns="http://www.w3.org/2000/svg" viewBox="0 0 405.2 172.7" preserveAspectRatio="none">
	<path fill="#F0F0F0" d="M166.8,0c14,0,28.1,0,42.1,0c12.9,3.1,26.1,3.5,39.3,3.8c20.5,0.6,41.2-0.4,61.4,3.4
			c17.1,3.3,33.7,4.2,50.9,0.5c13.4-2.8,22,5.7,22,19.5c0,3.6-1.4,5.1-5,5.2c-10.3,0.2-20.7,0.7-31,1c-2.8,0.1-5.6,0-8.4,1.1
			c1.4,0.2,2.9,0.1,4.3,0.2c11.5,0.7,23,1.5,34.5,2.2c3.6,0.2,5.7,1.4,5,5.5c-0.6,3.7,0.3,7.3,0.5,11c0.3,3.4,2,5,5.2,4.4
			c5.9-0.9,8.9,2.5,11.4,7c2.8,5.2,4.9,10.6,6.3,16.3c0,7.3,0,14.7,0,22c-2.4,6.9-4.2,14.1-7.2,20.8c-1.4,3-2.9,4.4-6.5,3.3
			c-22.8-6.7-46.2-4.7-69.4-4.7c10.2,0.5,20.3,1.9,30.3,3.5c11.9,1.9,23.6,4.5,35,8.5c1.8,0.6,4.2,0.9,3,4c-3.1,8-13,14.7-21.7,14.1
			c-15-0.9-30-2.1-45-2.1c-8,0-8.1-0.1-8.6-8c-0.2-4.1-1.6-5.1-5.7-4.2c-13.7,3.1-27.7,3.9-41.8,3.5c-21.4-0.6-42.7-2.5-64.1-1.2
			c-11.9,0.7-23.5,3-34.7,7.2c-3.1,1.1-4.7,3.1-2.9,6c1.2,1.9,3.8,0.5,5.6,0.2c44.1-6.3,88.5-7.4,132.9-5.6c1.8,0.1,3.9-0.3,5.7,1.5
			c-3.2,1.1-6.1,0.7-8.9,0.8c-31.1,0.6-62,3-92.9,6.3c-46.1,5.1-92.2,10.4-138.4,15.6c-2.3,0.3-4.7,0.7-6.9-0.5
			c-11.7-6.6-24.2-9.4-37.5-8.7c-2.2,0.1-3.9-0.6-4.2-3.2c-1.2-9.8-3-19.5-3.7-29.3c-0.6-7.9,1.9-14.9,12.5-14.9
			c1.3,0,2.6-0.1,3.1-1.8c1.2-3.8-0.9-10.3-4.3-12.4C15.4,93,6.9,80.7,2.1,65.5c-6.4-20.3,1.8-37,21.9-44.3
			c15.3-5.6,31.3-7.1,47.3-7.1C103.9,14.2,135.1,5.4,166.8,0z M234.8,121.9c24.8,0,50.4,0,72.7,0
			C285.2,118.8,259.5,116.7,234.8,121.9z"/>
</svg>