<?xml version="1.0" encoding="utf-8"?>
<!-- Generator: Adobe Illustrator 24.3.0, SVG Export Plug-In . SVG Version: 6.00 Build 0)  -->
<svg xmlns="http://www.w3.org/2000/svg" viewBox="0 0 899.1 124.7" style="enable-background:new 0 0 899.1 124.7;" xml:space="preserve" preserveAspectRatio="none">
<path fill="#F0F0F0" d="M895.3,65.7c-6.6-7.3-14.3-12.5-24.8-12.1c-4.3,0.2-8.7-0.5-13-0.6c-3.2-0.1-4.5-1.9-4.3-4.9
	c0.1-1.8,0.4-3.7,1-5.4c1.2-3.3,0-4.7-3.3-4.8c-7.4-0.4-14.7-0.8-22-1.2c-20-1.2-40-2.8-60-3.7c1.7,0,3.3,0,5,0
	c25.9,0.7,51.8,1.4,77.8,2c5.9,0.1,8.2-4,5.3-9.2c-1.5-2.8-4.1-4.3-6.9-5.5c-7-3.1-14.4-4.6-22-4.6c-19.7-0.1-39.5,0.1-59.2,0.1
	c-8.4,0-16.8,0.3-25.1-0.6c-26.4-2.8-52.9-5.1-79.5-6.4c-26.9-1.2-53.8-2.4-80.7-2.9C543.2,5.1,503.2,2.6,463.1,1
	c-48.8-2-97.7-0.8-146.5,2.9c-45,3.4-90.1,5.7-135.3,6.6c-36.5,0.7-72.9,1.7-109.2,5.3C54.2,17.5,0.4,19.1,0,45.2
	c-0.1,3.8,2.9,5.8,5.3,8.5C15,64.5,30,68.9,43.6,72.5c5,1.3,12.8,1.7,17,5c4,3.2,4.2,7.1-1.8,7.4c-4.5,0.2-9,0.5-13.5,0.5
	c-4.7,0.1-7.2,1.9-6.5,7c0.4,2.9-0.9,4.4-4,4.2c-1.5-0.1-3,0-4.5,0c-5.4,0.1-6,0.9-4.8,6.4c0.9,4.1,2.9,8,2.4,12.2
	c-0.5,4.3,1.1,5.1,5,4.8c18.6-1.4,37.1-1,55.6,1c19.5,2.1,38.9,4.4,58.5,3.4c29.7-1.5,59.5-2.7,89.2-3.9c34.8-1.4,69.5-2.8,104.3-4
	c31.9-1.1,63.9-2.2,95.8-2.9c28.8-0.7,57.6-1,86.3-1.2c50.5-0.4,101-0.2,151.6,0.8c1.8,0,3.6,0,5.4,0c-5.8-0.9-11.4-1.8-17-2
	c-32.4-1.2-64.9-2.4-97.3-3c-26.3-0.5-52.6-0.3-78.8-0.3c-19.7,0-39.5,0-59.2,0.5c-24.6,0.6-49.1,1.7-73.7,2.5c-1.4,0-3.8,1-3.8-1.8
	c0-2.4,2.1-1.7,3.4-1.8c22.7-3.1,45.6-4.5,68.5-4.9c41-0.7,82,0,123,1.7c33.9,1.4,67.9,1.8,101.9,1.5c12.4-0.1,24.8-0.3,37.1-1.1
	c2.3-0.1,5.3-0.5,4.9,3.1c-0.6,5.8,2.8,6.6,7.3,6.7c20.1,0.6,40.1,1.3,60.2,2.2c15.5,0.7,31.1,1.7,46.6,2.8
	c18,1.3,35.4-0.7,52.2-7.5c1.2-0.5,3-0.6,3-2.2c0-1.6-1.6-1.3-2.7-1.5c-26.2-3.8-52.4-6.9-78.7-9.1c-20.5-1.7-41.1-3.1-61.6-4.6
	c23.6,0.7,47.1,1.8,70.7,2.7c27.4,1,54.8,3,81.9,6.9c1.3,0.2,2.8,0.4,3.9-0.2c10.4-5.2,20.5-10.8,26.1-21.8
	C900.3,76,899.5,70.5,895.3,65.7z"/>
</svg>
