<svg xmlns="http://www.w3.org/2000/svg" viewBox="0 0 13.6 13">
<style type="text/css">
	.st0{fill:#D3B981;}
	.st1{fill:#C1945B;}
	.st2{fill:#CEB572;}
	.st3{fill:#AD7D4F;}
	.st4{fill:#B89163;}
	.st5{fill:#D6C090;}
	.st6{fill:#C39D57;}
	.st7{fill:#FCFCFC;}
	.st8{fill:#D3BF90;}
	.st9{fill:#CCAF83;}
	.st10{fill:#D8C089;}
	.st11{fill:#EAE2BA;}
	.st12{fill:#C5A369;}
	.st13{fill:#F7F1D3;}
	.st14{fill:#7F5B3D;}
	.st15{fill:#80452D;}
	.st16{fill:#784B31;}
	.st17{fill:#8A5A37;}
	.st18{fill:#9F6839;}
	.st19{fill:#DBC898;}
	.st20{fill:#A27349;}
	.st21{fill:#C2A26C;}
	.st22{fill:#764531;}
	.st23{fill:#925C3B;}
	.st24{fill:#C19C68;}
	.st25{fill:#F4F0D6;}
	.st26{fill:#A3713B;}
	.st27{fill:#844630;}
	.st28{fill:#E3D691;}
	.st29{fill:#CEB47C;}
	.st30{fill:#DBC58A;}
	.st31{fill:#BC9460;}
	.st32{fill:#B3834C;}
	.st33{fill:#E8DBAB;}
	.st34{fill:#D5BB7A;}
	.st35{fill:#F0EAD3;}
	.st36{fill:#DECD8F;}
	.st37{fill:#855430;}
	.st38{fill:#B99A6B;}
	.st39{fill:#643520;}
</style>
<g id="Group_3" transform="translate(-449.273 -140.944)">
	<path id="Path_379" class="st0" d="M453.7,153.5l-0.8-0.3c-0.5-0.2-0.8-0.6-0.8-1.1c0-0.3,0.1-0.5,0.2-0.7c0.2-0.6-0.3-0.6-0.6-0.7
		c-0.5-0.1-0.9-0.3-1.3-0.6c-0.6-0.8-0.9-1.7-1-2.7l0,0c0.3-0.3,0.6-0.5,1-0.5c0.2,0,0.4,0,0.6,0c0.5,0,1.1,0.3,1.6,0.3
		c0.4,0,0.7,0,1.1,0c0.6,0,1.1,0.2,1.6,0.5c0.4,0.4,0.6,1,0.5,1.6c-0.9,0.6,0.2,0.8,0.2,1.3c0.1,0.2,0.2,0.5,0.2,0.8
		c-0.2,0.7-1,0.6-1.4,1.1C454.5,152.8,454.3,153.4,453.7,153.5z"/>
	<path id="Path_380" class="st1" d="M453.7,141.5c0.1,0.1,0.2,0,0.3,0c1.1-0.5,2.4,0.1,3.5-0.4c0.3,0.3,0.7,0.4,1.1,0.3
		c0.2,0.3-0.3,0.7,0.1,1c-0.2,0.7-0.9,1.1-1.2,1.8c-0.7,0.6-1.7,0.1-2.4,0.5c-0.5,0.1-1-0.1-1.4-0.4c-0.4-0.6-0.7-1.2-0.8-2
		C453,141.9,453.3,141.7,453.7,141.5z"/>
	<path id="Path_381" class="st2" d="M462.1,149.1c-0.4,2.5-2.6,4.3-5.1,4.2c-0.2-0.4,0-0.6,0.2-0.9c0.3-0.2,0.2-0.5,0.1-0.8
		c0.1-0.5,0.4-0.9,0.4-1.4c0.1-0.2,0.4-0.4,0.7-0.4c0.7,0.5,1.3,1,2,0.1c0.7-0.1,0-0.7,0.3-1c0.2-0.3,0.4-0.4,0.7-0.5
		C461.8,148.5,462.3,148.5,462.1,149.1z"/>
	<path id="Path_382" class="st3" d="M451.2,147.3l-0.5,0.1c-0.5-0.4-0.3-0.9-0.2-1.4c0.4-0.8-0.1-1.7,0.5-2.4c0-0.6,0.3-1.1,0.9-1.3
		c0.2-0.1,0.4-0.1,0.6,0.1c0,0,0,0,0,0c0.5,1.5,0.4,3.1-0.2,4.5C452,147.3,451.5,147.1,451.2,147.3z"/>
	<path id="Path_383" class="st4" d="M451.1,143.6c0.2,0.8,0.2,1.7,0,2.6c-0.5,0.2-0.9,1-1.7,0.4
		C449.2,145.3,449.9,144.1,451.1,143.6z"/>
	<path id="Path_384" class="st5" d="M450.6,149.9l1.3,0.4c0.4,0.4,1.5,0.2,0.9,1.3l-0.5,0.6c-0.2,0.3-0.4,0.5-0.8,0.3
		c-0.7-0.3-0.8-1.1-1.2-1.7C450.2,150.5,450.4,150.1,450.6,149.9z"/>
	<path id="Path_385" class="st6" d="M457.4,152.5l-0.4,0.8c0,0.1,0,0.2,0,0.4c-0.2,0.3-0.5,0.3-0.8,0.2c-0.1-0.1-0.3-0.3-0.3-0.5
		c-0.2-0.8,0.6-1.4,0.3-2.2l-0.4-0.5c0.2-0.3,0.4-0.7,0.7-0.9c0.3-0.2,0.8-0.1,1.1,0.1c0.2,0.1,0.3,0.2,0.4,0.4
		c0.4,0.6-0.3,0.9-0.4,1.4C457.7,151.9,457.7,152.2,457.4,152.5C457.5,152.4,457.4,152.5,457.4,152.5z"/>
	<path id="Path_386" class="st7" d="M450.6,149.9c0.1,0.3,0,0.7-0.3,0.9c-0.9-0.9-1.3-2.2-0.9-3.4
		C450.5,147.9,450,149.2,450.6,149.9z"/>
	<path id="Path_387" class="st7" d="M462,144.5c0.5,1.4,1.3,2.7,0.5,4.2c-0.3-0.2-0.5-0.4-0.7-0.7c-0.3-0.4-0.5-0.9-0.7-1.3
		c-0.1-0.3,0-0.7,0.2-0.9c0.2-0.3,0.3-0.6,0.4-0.9C461.8,144.7,461.9,144.6,462,144.5z"/>
	<path id="Path_388" class="st8" d="M462,144.5c0,0.1,0,0.3,0,0.4c-0.5,0.5-1.3,0.6-1.9,0.3c-0.2-0.1-0.4-0.3-0.5-0.5
		c-0.2-0.6-0.3-1.3-0.1-2c0.1-0.2,0.2-0.4,0.3-0.6l0.5,0.2c0.3,0.5,0.8,1,1.3,1.3C461.6,144,461.7,144.3,462,144.5z"/>
	<path id="Path_389" class="st9" d="M456.1,153.2l0.1,0.4c-0.5,0.4-1.2,0.4-1.7,0.1l-0.8-0.2l0.9-1.6c0.7-0.1,1.4,0.4,1.6,1.1
		C456.1,153.1,456.1,153.2,456.1,153.2z"/>
	<path id="Path_390" class="st7" d="M457.6,141.1c-1.1,1-2.3,0.3-3.5,0.4C455.1,140.9,456.4,140.8,457.6,141.1z"/>
	<path id="Path_391" class="st7" d="M449.4,146.6c0.7,0.3,1-0.5,1.7-0.4c-0.2,0.4-0.6,0.7-0.4,1.2l-1.3,0L449.4,146.6z"/>
	<path id="Path_392" class="st10" d="M462.2,147.8l0.3,0.9l-0.4,0.5c-0.2-0.3-0.5-0.5-0.8-0.4c-0.5-0.2-0.8-0.5-0.4-1
		C461.3,147.4,461.8,147.5,462.2,147.8z"/>
	<path id="Path_393" class="st7" d="M461.6,143.6c-0.9,0.1-1.3-0.4-1.3-1.3C460.9,142.6,461.4,143,461.6,143.6z"/>
	<path id="Path_394" class="st7" d="M458.7,142.3c-0.4-0.3,0.1-0.6,0-0.9c0.5,0,1,0.2,1.2,0.7c0,0.1,0,0.2,0.1,0.2
		c-0.2,0.2-0.5,0.3-0.8,0.3C459,142.6,458.8,142.5,458.7,142.3z"/>
	<path id="Path_395" class="st7" d="M452.3,142.4c-0.1,0-0.2-0.1-0.3-0.1c0.4-0.5,1.1-0.8,1.8-0.8l-0.5,0.8
		C453,143.5,452.6,142.5,452.3,142.4z"/>
	<path id="Path_396" class="st11" d="M456.1,153.2l-1.6-1.3c0.4-0.6,1.3-0.1,1.6-0.7C457.3,151.9,456.4,152.6,456.1,153.2z"/>
	<path id="Path_397" class="st12" d="M453.5,147.4l-0.7,0.4c-0.2-0.2-0.4-0.5-0.4-0.8c0.1-1.1,0.7-1.3,1.7-1.2
		c0.4,0.1,0.7,0.3,0.9,0.7c0,0.2,0,0.4-0.1,0.5C454.5,147.3,454,147.5,453.5,147.4z"/>
	<path id="Path_398" class="st13" d="M455.8,149.4c-0.4-0.5-0.5-1-0.5-1.6l0.3-0.1c0.3,0,0.6,0.1,0.8,0.3c0.2,0.2,0.4,0.5,0.5,0.8
		c0.1,0.4-0.2,0.8-0.6,1C456.1,149.7,455.9,149.6,455.8,149.4z"/>
	<path id="Path_399" class="st14" d="M452.5,148.3c0.1,0.1,0.4,0.3,0.4,0.5c0,0.3-0.2,0.6-0.5,0.6c-0.1,0-0.1,0-0.2,0
		c-0.2,0-0.6-0.3-0.6-0.5C451.7,148.6,452,148.4,452.5,148.3z"/>
	<path id="Path_400" class="st15" d="M455.8,149.4c0.1,0.1,0.2,0.2,0.3,0.2c0.2,0.1,0.5,0.1,0.5,0.4c0.1,0.6-0.3,0.8-0.8,0.8
		C455.7,150.3,454,149.8,455.8,149.4z"/>
	<path id="Path_401" class="st16" d="M453.5,147.4c0.3-0.4,0.8-0.6,1.3-0.4c0.4,0.1,0.7,0.3,0.5,0.8l0,0
		C454.7,147.8,454,147.9,453.5,147.4z"/>
	<path id="Path_402" class="st17" d="M452.8,147.2c0,0.2,0,0.5,0,0.7c-0.6,0.1-1.1-0.4-1.6-0.5l0.7-0.3
		C452.2,146.8,452.6,146.5,452.8,147.2z"/>
	<path id="Path_403" class="st18" d="M452.8,151.6c0.2-0.7-0.7-0.8-0.9-1.3c0.6-0.1,1.2-0.1,1.4,0.5
		C453.5,151.2,453.1,151.5,452.8,151.6z"/>
	<path id="Path_404" class="st19" d="M452.8,147.2l-0.8-0.2c0.7-1.5,0.4-3,0.4-4.6c0.3-0.1,0.7,0.4,1-0.1l0.9,2
		c-0.6,0.6,0.3,1.2-0.1,1.8C453.7,146.5,452.5,145.9,452.8,147.2z"/>
	<path id="Path_405" class="st20" d="M454.1,146.1c-1.1-1.6-1.1-1.6,0.1-1.8c0.4,0,0.8,0.1,1.1,0.1c0.7-0.1,1.3,0.1,1.4,0.9
		c0,0.6-0.2,1.1-0.7,1.5c-0.4,0.2-0.9,0.1-1.2-0.2L454.1,146.1z"/>
	<path id="Path_406" class="st21" d="M456.5,145.3l-1.2-0.8c0.6-0.9,1.4,0,2.1-0.4c0.2-0.2,0.4-0.4,0.6-0.5c0.3-0.1,0.7-0.2,1.1-0.1
		c0.5,0.2,0.6,0.7,0.9,1c0,0.1,0,0.2,0,0.3c0.1,0.1,0.1,0.2,0.1,0.3c0,0.1,0,0.2-0.1,0.2c-0.1,0.1-0.3,0.2-0.5,0.3
		c-0.7-0.2-1.4-0.6-2,0.1C457.2,145.7,456.8,145.6,456.5,145.3z"/>
	<path id="Path_407" class="st22" d="M458.2,144l-0.8,0.1c-0.1-1,0.8-1.2,1.3-1.7c0.1-0.1,0.2,0,0.3,0c0.2,0.1,0.3,0.3,0.3,0.5
		C459.1,143.4,458.5,143.5,458.2,144z"/>
	<path id="Path_408" class="st23" d="M460.4,149.8c-0.1,0.5,0.3,1.1-0.6,1.3c-1,0.2-1-0.8-1.5-1.2c-0.4-0.4-0.5-1-0.3-1.5
		c0.1-0.2,0.3-0.3,0.5-0.4c0.2,0,0.4,0,0.6,0.1C459.5,148.6,460,149.2,460.4,149.8z"/>
	<path id="Path_409" class="st24" d="M458.3,148.2c0,0.5,0,1.1,0,1.6l-0.4,0.5l-0.5-0.1c-0.3-0.5-0.5-1.1-0.7-1.7l-0.4-0.4
		c-0.4-1.5,0.5-1,1.2-0.8C457.8,147.6,458.1,147.9,458.3,148.2z"/>
	<path id="Path_410" class="st25" d="M459.1,148.3c-0.1-0.1-0.2-0.1-0.3-0.1c0.5-1.2,1.2-0.9,1.9-0.3l0.6,0.8l-0.5,0.5
		C460,149.3,459.5,148.8,459.1,148.3z"/>
	<path id="Path_411" class="st26" d="M459.1,148.3c0.7-0.1,1,0.7,1.7,0.8c0.2,0.4,0.3,0.8-0.4,0.7
		C459,150.1,459.3,148.9,459.1,148.3z"/>
	<path id="Path_412" class="st27" d="M457.4,152.5c0-0.3,0-0.5,0-0.8c0.4,0,0.9,0.1,0.8,0.6C458.1,152.8,457.7,152.4,457.4,152.5z"
		/>
	<path id="Path_413" class="st28" d="M456.6,148.6c0.2,0.6,1.3,0.7,0.7,1.7l-0.8-0.3l-0.5-0.4C456.5,149.4,456.6,149,456.6,148.6z"
		/>
	<path id="Path_414" class="st29" d="M460.7,147.9c-0.7-0.1-1.3-0.3-1.9,0.3l-0.5,0.1l-0.9-0.4c0.2-0.3,0.4-0.5,0.7-0.6
		c0.3-0.2,0.4-0.5,0.5-0.8c0.2-0.3,0.5-0.5,0.9-0.5c0.3,0,0.5,0.2,0.6,0.4c0.2,0.6,0.6,0.2,0.9,0.1c0.1,0,0.2,0,0.3,0
		c0.4,0.4,0.9,0.7,0.9,1.3L460.7,147.9z"/>
	<path id="Path_415" class="st30" d="M460,146.6l-0.5-0.5c-0.1,0-0.2-0.2-0.2-0.3c0-0.1,0-0.3,0.1-0.4l0.5-0.1
		c0.7-0.4,1.3-0.1,1.7,0.5l-0.4,0.7c-0.1,0.1-0.1,0.1-0.2,0.2C460.8,146.9,460.3,146.9,460,146.6z"/>
	<path id="Path_416" class="st31" d="M461.7,145.7l-1.7-0.5c0-0.2,0-0.4,0-0.5l2.1,0.1C462.1,145.2,462,145.6,461.7,145.7z"/>
	<path id="Path_417" class="st32" d="M459.1,142.8c0-0.1-0.1-0.3-0.1-0.4l0.9,0c0,0.7,0,1.4,0,2.1l-0.8-0.8
		C459.1,143.3,459.4,143.1,459.1,142.8z"/>
	<path id="Path_418" class="st33" d="M458.3,147.4c-0.2,0.4-0.5,0.4-0.8,0.4c-0.5-0.2-1.2-0.9-1.2,0.4l-0.9-0.4l-0.5-0.8
		c0-0.2,0-0.3,0-0.5l1.3,0c0.2-0.4,0.5-0.7,0.9-0.7C457.9,146.1,458.4,146.5,458.3,147.4z"/>
	<path id="Path_419" class="st34" d="M457.1,146.1l-0.9,0.5c0-0.5-0.2-1,0.4-1.3l1.4,0.1c0,0.2-0.1,0.3-0.2,0.4
		C457.6,146,457.3,146,457.1,146.1z"/>
	<path id="Path_420" class="st35" d="M457.9,145.6c0-0.1,0.1-0.2,0.1-0.2c0.5-1.3,1-0.3,1.5,0.1c0,0.1,0.1,0.2,0.1,0.3
		c-0.4,0.2-0.8,0.3-1.3,0.2C458.1,145.9,457.9,145.8,457.9,145.6z"/>
	<path id="Path_421" class="st36" d="M459.1,142.8c0.5,0.3,0.4,0.5,0,0.8l-0.9,0.4C458.1,143.3,458.8,143.2,459.1,142.8z"/>
	<path id="Path_422" class="st37" d="M457.1,146.1c0.1-0.3,0.4-0.5,0.8-0.5l0,0.1c0.2,0.3,0.8,0.4,0.8,0.9c0.1,0.4,0.5,0.9-0.4,0.8
		L457.1,146.1z"/>
	<path id="Path_423" class="st38" d="M458.7,146.6l-0.8-0.9l1.6,0.1c0,0.1,0,0.2,0,0.3L458.7,146.6z"/>
	<path id="Path_424" class="st39" d="M460,146.6l1.2,0c0,0.4-0.4,0.7-0.8,0.7c-0.1,0-0.1,0-0.2,0C459.5,147.2,459.9,146.9,460,146.6
		z"/>
</g>
</svg>
