<svg xmlns="http://www.w3.org/2000/svg" viewBox="0 0 51 53.6">
<style type="text/css">
	.st0{fill:#E6D6B7;}
	.st1{fill:#D9BD89;}
	.st2{fill:#E1CE9F;}
	.st3{fill:#EFE6C7;}
	.st4{fill:#EADDB9;}
	.st5{fill:#E2D2B0;}
	.st6{fill:#F1EBDB;}
	.st7{fill:#FCFCFC;}
	.st8{fill:#AB7955;}
	.st9{fill:#C7A175;}
	.st10{fill:#C99F7C;}
	.st11{fill:#CB9F70;}
	.st12{fill:#DECA9E;}
	.st13{fill:#CEA97D;}
	.st14{fill:#F2ECCC;}
	.st15{fill:#E7DCC4;}
	.st16{fill:#DDC9A8;}
	.st17{fill:#EFE4D1;}
	.st18{fill:#F4F2D7;}
	.st19{fill:#DEC899;}
	.st20{fill:#DDC898;}
	.st21{fill:#D9C29B;}
	.st22{fill:#F6F0D9;}
	.st23{fill:#DFCC93;}
	.st24{fill:#F9F7E9;}
	.st25{fill:#E1D1B0;}
	.st26{fill:#CB9870;}
	.st27{fill:#ECDEB8;}
	.st28{fill:#E6DBC0;}
	.st29{fill:#D6B885;}
	.st30{fill:#9E6D4F;}
	.st31{fill:#DEC996;}
	.st32{fill:#DBB87E;}
	.st33{fill:#A26445;}
	.st34{fill:#A66245;}
	.st35{fill:#6B4035;}
	.st36{fill:#B4835E;}
	.st37{fill:#E1C99D;}
	.st38{fill:#D5BC8F;}
	.st39{fill:#A97C62;}
	.st40{fill:#FBFBF4;}
	.st41{fill:#B7875D;}
	.st42{fill:#B67C4D;}
	.st43{fill:#C59E68;}
	.st44{fill:#CEAE7C;}
	.st45{fill:#A76642;}
	.st46{fill:#EEE4C7;}
	.st47{fill:#E2CF96;}
	.st48{fill:#CFA86E;}
	.st49{fill:#AB6546;}
	.st50{fill:#BE8D68;}
	.st51{fill:#D1B68B;}
	.st52{fill:#C8A277;}
	.st53{fill:#9D7C5E;}
	.st54{fill:#945D43;}
	.st55{fill:#D7C39C;}
	.st56{fill:#BA845C;}
	.st57{fill:#E8DEAB;}
	.st58{fill:#C99A63;}
	.st59{fill:#DBC6A4;}
	.st60{fill:#DBBF8A;}
	.st61{fill:#CDAF84;}
	.st62{fill:#F2EBD5;}
	.st63{fill:#D5B787;}
	.st64{fill:#C4905D;}
	.st65{fill:#95603C;}
	.st66{fill:#D1AD77;}
	.st67{fill:#C79B6C;}
	.st68{fill:#ECE3BB;}
	.st69{fill:#C6A173;}
	.st70{fill:#ECE2C3;}
	.st71{fill:#B57B56;}
	.st72{fill:#F0EBD3;}
	.st73{fill:#CD9E63;}
	.st74{fill:#BB814C;}
	.st75{fill:#DABE8E;}
	.st76{fill:#D8BA8D;}
	.st77{fill:#D8C193;}
	.st78{fill:#A95D42;}
	.st79{fill:#A5683F;}
	.st80{fill:#D1B080;}
	.st81{fill:#9F5F41;}
	.st82{fill:#DFC993;}
	.st83{fill:#A8684B;}
	.st84{fill:#C89C64;}
	.st85{fill:#C9A066;}
	.st86{fill:#F7F6E8;}
	.st87{fill:#CBA174;}
	.st88{fill:#ECE1D0;}
	.st89{fill:#CCAA7A;}
	.st90{fill:#C39569;}
	.st91{fill:#F4F3DC;}
	.st92{fill:#C49961;}
	.st93{fill:#A36345;}
	.st94{fill:#CAAF87;}
	.st95{fill:#C29967;}
	.st96{fill:#D1B38A;}
	.st97{fill:#E2D2B3;}
	.st98{fill:#EBE1B9;}
	.st99{fill:#BE9164;}
	.st100{fill:#C19B6A;}
	.st101{fill:#BA9067;}
	.st102{fill:#9B7655;}
	.st103{fill:#E8D7B5;}
	.st104{fill:#CEA262;}
	.st105{fill:#DEC699;}
	.st106{fill:#FDFDFC;}
	.st107{fill:#C29C6B;}
	.st108{fill:#E0C796;}
	.st109{fill:#EEE4CB;}
	.st110{fill:#845036;}
	.st111{fill:#FBFAEE;}
	.st112{fill:#BF8C5F;}
	.st113{fill:#DFCDAE;}
	.st114{fill:#EBDDBA;}
	.st115{fill:#FBF9F3;}
	.st116{fill:#E8DBB5;}
	.st117{fill:#F5F1D7;}
	.st118{fill:#B97B4E;}
	.st119{fill:#C9A47B;}
	.st120{fill:#A05E46;}
	.st121{fill:#8A553D;}
	.st122{fill:#DABB95;}
	.st123{fill:#C49A6A;}
	.st124{fill:#EEE2C7;}
	.st125{fill:#D9C290;}
	.st126{fill:#AE7952;}
	.st127{fill:#D3B788;}
	.st128{fill:#D7BE92;}
	.st129{fill:#C59D78;}
	.st130{fill:#CFAF82;}
	.st131{fill:#B67B4E;}
	.st132{fill:#F2EDD6;}
	.st133{fill:#C9A46B;}
	.st134{fill:#DFD3AC;}
	.st135{fill:#A25E30;}
	.st136{fill:#E3D2AC;}
	.st137{fill:#A57049;}
	.st138{fill:#EBE0B0;}
	.st139{fill:#B28861;}
	.st140{fill:#BF8A53;}
	.st141{fill:#C9A46F;}
	.st142{fill:#F5F0DA;}
	.st143{fill:#893A2B;}
	.st144{fill:#E1D0A4;}
	.st145{fill:#772E11;}
	.st146{fill:#CEB798;}
	.st147{fill:#B78155;}
	.st148{fill:#C69C67;}
	.st149{fill:#F2EFDB;}
	.st150{fill:#E6D6B3;}
	.st151{fill:#BC8757;}
	.st152{fill:#F7F4E3;}
	.st153{fill:#E3D3A3;}
	.st154{fill:#935736;}
	.st155{fill:#E3D4B0;}
	.st156{fill:#F2EAD4;}
	.st157{fill:#D3AF7E;}
	.st158{fill:#E1CC9B;}
	.st159{fill:#DBC49E;}
	.st160{fill:#8E422C;}
	.st161{fill:#DAC497;}
	.st162{fill:#DDC8A5;}
	.st163{fill:#C39E7A;}
	.st164{fill:#DEC499;}
	.st165{fill:#F1E7D0;}
	.st166{fill:#DFD0AE;}
	.st167{fill:#BF9D74;}
	.st168{fill:#B0825B;}
	.st169{fill:#E1CCA8;}
	.st170{fill:#8C503C;}
	.st171{fill:#D8BC7C;}
	.st172{fill:#AF8A6F;}
	.st173{fill:#AC784C;}
	.st174{fill:#DBC292;}
	.st175{fill:#E1CAA5;}
	.st176{fill:#F4F0E1;}
	.st177{fill:#9E6549;}
	.st178{fill:#F9F7ED;}
	.st179{fill:#D2AC7D;}
	.st180{fill:#DFC791;}
	.st181{fill:#CFA466;}
	.st182{fill:#E1C890;}
	.st183{fill:#ECE0B4;}
	.st184{fill:#FBF9EE;}
	.st185{fill:#EBDEC4;}
	.st186{fill:#8F3824;}
	.st187{fill:#E6D7B2;}
	.st188{fill:#F6F2E4;}
	.st189{fill:#EBE2C6;}
	.st190{fill:#F5F2DA;}
	.st191{fill:#E2CF95;}
	.st192{fill:#A66541;}
	.st193{fill:#EBE2B8;}
	.st194{fill:#C89A67;}
	.st195{fill:#EADDB4;}
	.st196{fill:#E3D1A8;}
	.st197{fill:#CB9F6F;}
	.st198{fill:#CBA167;}
	.st199{fill:#D9BF93;}
	.st200{fill:#DCC387;}
	.st201{fill:#B16F39;}
	.st202{fill:#B98657;}
	.st203{fill:#C4A279;}
	.st204{fill:#E4D3AA;}
	.st205{fill:#DECDA3;}
	.st206{fill:#E1CCAA;}
	.st207{fill:#93513B;}
	.st208{fill:#D2B485;}
	.st209{fill:#D7BF9C;}
	.st210{fill:#DDCFA8;}
	.st211{fill:#FBFAEA;}
	.st212{fill:#BA8359;}
	.st213{fill:#ECE2C0;}
	.st214{fill:#8B392B;}
	.st215{fill:#F4F0D5;}
	.st216{fill:#D5BF92;}
	.st217{fill:#F8F6E7;}
	.st218{fill:#D9BC8C;}
	.st219{fill:#E9DCB0;}
	.st220{fill:#F6F2E0;}
	.st221{fill:#A66E4E;}
	.st222{fill:#C5965D;}
	.st223{fill:#D5AF77;}
	.st224{fill:#B88966;}
	.st225{fill:#E9DEBB;}
	.st226{fill:#F2EAD3;}
	.st227{fill:#6D4733;}
	.st228{fill:#D6BC8B;}
	.st229{fill:#A35C3F;}
	.st230{fill:#B27C4E;}
	.st231{fill:#E6D7C1;}
	.st232{fill:#B8895D;}
	.st233{fill:#AE7F52;}
	.st234{fill:#C69A6B;}
	.st235{fill:#F5F0D8;}
	.st236{fill:#F3EED7;}
	.st237{fill:#DFCB9A;}
	.st238{fill:#A9643F;}
	.st239{fill:#AE7C50;}
	.st240{fill:#86593E;}
	.st241{fill:#D2B685;}
	.st242{fill:#C1945E;}
	.st243{fill:#F5EFD8;}
	.st244{fill:#F3EED1;}
	.st245{fill:#F4F0DC;}
	.st246{fill:#B07A57;}
	.st247{fill:#B47C54;}
	.st248{fill:#D1B68A;}
	.st249{fill:#E5D6AC;}
	.st250{fill:#A1632F;}
	.st251{fill:#E8D9BC;}
	.st252{fill:#ECDFBF;}
	.st253{fill:#CEA365;}
	.st254{fill:#975B41;}
	.st255{fill:#C49865;}
	.st256{fill:#D6B780;}
	.st257{fill:#F1EAD7;}
	.st258{fill:#E4D1A8;}
	.st259{fill:#B98655;}
	.st260{fill:#B36B3A;}
	.st261{fill:#E6D4AB;}
	.st262{fill:#D1AC86;}
	.st263{fill:#B47E5C;}
	.st264{fill:#B07A4E;}
	.st265{fill:#E7D8B6;}
	.st266{fill:#F4EFDD;}
	.st267{fill:#B4683D;}
	.st268{fill:#FCFCF4;}
	.st269{fill:#B4896B;}
	.st270{fill:#E0C98D;}
	.st271{fill:#F7F7E2;}
	.st272{fill:#CCA069;}
	.st273{fill:#D3B689;}
	.st274{fill:#BF8C56;}
	.st275{fill:#F7F3E2;}
	.st276{fill:#E4D1A4;}
	.st277{fill:#F5EECB;}
	.st278{fill:#E0CB9F;}
	.st279{fill:#D0AF7D;}
	.st280{fill:#AA6543;}
	.st281{fill:#F6F1DC;}
	.st282{fill:#9C5D3F;}
	.st283{fill:#D5B785;}
	.st284{fill:#B0794A;}
	.st285{fill:#E1CD9D;}
	.st286{fill:#F1EAC5;}
	.st287{fill:#D0A974;}
	.st288{fill:#A3583E;}
	.st289{fill:#F4EDD8;}
	.st290{fill:#E3D5B4;}
	.st291{fill:#DAC086;}
	.st292{fill:#DFC795;}
	.st293{fill:#DDC494;}
	.st294{fill:#F2ECD7;}
	.st295{fill:#D8BD9A;}
	.st296{fill:#905B3D;}
	.st297{fill:#BE8B5B;}
	.st298{fill:#E1CBA5;}
	.st299{fill:#E5D0A6;}
	.st300{fill:#E5D8B3;}
	.st301{fill:#9A5835;}
	.st302{fill:#D3B57F;}
	.st303{fill:#EEE3BA;}
	.st304{fill:#FAF8EE;}
	.st305{fill:#D1AD81;}
	.st306{fill:#8C5942;}
	.st307{fill:#B98951;}
	.st308{fill:#AE8D6C;}
	.st309{fill:#BE8B5C;}
	.st310{fill:#F7F3E0;}
	.st311{fill:#FAF9EF;}
	.st312{fill:#E5D4AF;}
	.st313{fill:#A9744E;}
	.st314{fill:#F4F0DE;}
	.st315{fill:#CFA76A;}
	.st316{fill:#D8C2A0;}
	.st317{fill:#F5F1E1;}
	.st318{fill:#C59660;}
	.st319{fill:#F3ECD9;}
	.st320{fill:#A6642D;}
	.st321{fill:#EBD9BD;}
	.st322{fill:#A85D35;}
	.st323{fill:#FEFEFE;}
	.st324{fill:#DABC91;}
	.st325{fill:#CEA464;}
	.st326{fill:#B47546;}
	.st327{fill:#E5D5AE;}
	.st328{fill:#C28F58;}
	.st329{fill:#BA804F;}
	.st330{fill:#E5D7B4;}
	.st331{fill:#E3CF9F;}
	.st332{fill:#FAF9E9;}
	.st333{fill:#E8DAB4;}
	.st334{fill:#E5D4A8;}
	.st335{fill:#E7D7AF;}
</style>
<g id="Group_1" transform="translate(-182.708 -90.623)">
	<path id="Path_1" class="st0" d="M221.1,133.4c-1.1,0.1-2.3-0.1-3.4-0.5c-0.3-0.2-0.4-0.6-0.3-0.9c-0.2-0.3,1.3-0.1,0.2-0.7
		c-0.3-0.2-0.6-0.5-0.7-0.9c-0.2-0.4-0.2-0.9-0.1-1.3c0.3-0.8,0.9-1.4,0.6-2.3c0-0.2,0.2-0.4,0.4-0.5c0.5-0.3,1.1-0.3,1.6,0
		c0.9,0.9-0.1,2.4,1.1,3.2c1,1.1,1.6,2.5,1.6,4C221.8,133.7,221.4,133.6,221.1,133.4z"/>
	<path id="Path_2" class="st1" d="M228,101.7c0.2,0,0.3,0,0.4-0.1c0.8-0.4,1.4,0.2,2.1,0.3c0.2,0,0.4,0.1,0.5,0.3
		c0.1,0.3,0.1,0.8,0.4,1c0.7,0.3,1.5,0,2.2,0.4c0.2,1.3-0.7,2.1-1.3,3c-0.5,0.4-1.1,0.5-1.7,0.3c-0.2-0.1-0.4-0.2-0.5-0.4
		c-0.2-1.1-1.7-0.8-1.9-1.9C229.2,103.5,227.3,102.7,228,101.7z"/>
	<path id="Path_3" class="st2" d="M216.7,103.2l3.9-0.6c0.3,0.4,0,0.7-0.2,1c-0.4,0.8,0.5,0.2,0.6,0.5c0.7,0.2,1.1,0.6,0.6,1.4
		c-0.5,0.1-1,0.3-1.3,0.7c-0.4,0.4-0.8,0.9-1,1.4c-0.2,0.2-0.5,0.4-0.8,0.4c-1.5-0.8-3.2-1.5-1.5-3.6
		C218.2,103.8,216.3,103.8,216.7,103.2z"/>
	<path id="Path_4" class="st3" d="M220.1,103.6l0.4-0.9l2.5-0.5c0.7,0.7-0.4,1.7,0.4,2.5c0.5,0.4,1,0.9,1.3,1.5c0.1,0.3,0,0.7-0.2,1
		c-0.4,0.4-1,0.7-1.5,0.4c-1-0.7-0.3,0.5-0.6,0.5c-0.1,0.4-0.4,0.8-0.8,1c-0.3,0.1-0.7,0-0.9-0.3c-0.1-0.3-0.2-0.6-0.2-0.9
		c0-0.2,0-0.4,0.1-0.6c0.2-0.5-0.3-1.2,0.4-1.7c0.6-0.9-0.1-0.9-0.7-1C220.2,104.3,219.7,104.1,220.1,103.6z"/>
	<path id="Path_5" class="st4" d="M227.4,121.2c0.3,0.4,0.3,0.9,0.1,1.4c-0.6,0.5-1.4,0.2-2,0.3c-0.7-0.4-0.9,0.6-1.4,0.6
		c-0.4,0.1-0.9,0-1.2-0.3c-0.5-0.4-1.2-0.6-1.5-1.3c-0.1-0.4,0.1-0.9,0.4-1.2c0.2-0.1,0.4-0.3,0.6-0.3c0.4-0.1,0.8-0.3,1.2-0.4
		c0.2,0,0.4-0.1,0.6-0.1c0.6,0,1.2-0.3,1.7-0.7c0.2-0.1,0.4,0,0.6,0.1l0.6,1C227.1,120.6,227,121,227.4,121.2z"/>
	<path id="Path_6" class="st5" d="M229.8,126.5c0.6,0.5,1.2,1,1,2c0,1.3-1.2,0.8-1.8,1.2c-0.6,0-1.2-0.4-1.8-0.4
		c-0.5-0.1-1-0.3-1.5-0.6c-0.4-0.3-0.7-0.9-0.5-1.5c0.1-0.2,0.3-0.3,0.4-0.4c0.8-0.1,1.2-0.7,1.8-1c0.4-0.2,0.9-0.2,1.3,0
		C229.2,125.9,229.5,126.2,229.8,126.5z"/>
	<path id="Path_7" class="st6" d="M191.2,122.2c-1.1,0.1-2-0.6-2.9-1c-0.1-0.1-0.2-0.4-0.2-0.6c0.1-0.5,0.3-1,0.5-1.5
		c0.4-0.6-0.1-1.3,0-1.9c0.1-0.3,0.3-0.6,0.7-0.7c0.5,0,0.9,0.1,1.3,0.4c0.6,0.3,1.3,0.5,1.4,1.3c0,0.5-0.2,1.1-0.4,1.5
		c-0.7,0.6,0.1,1.1,0.1,1.6C191.6,121.7,191.5,122,191.2,122.2z"/>
	<path id="Path_8" class="st7" d="M221.1,133.4l1,0c0.4-0.4,1.1-0.6,1.6-0.4c1.4,0.7,2.1-0.6,3.1-1.1c0.8-0.2,1.2,0.4,1.7,0.9
		c0.1,0.2,0.3,0.3,0.4,0.5c0.7,0.9-0.7,1.3-0.5,2.1C225.9,134.9,223.4,134.3,221.1,133.4z"/>
	<path id="Path_9" class="st8" d="M216.7,103.2c0.3,0.7,1,0.2,1.5,0.5c-0.1,0.6-0.7,0.6-1,0.9c-0.3,0.8-1.2,1-1.8,1.5
		c-0.6,0.2-1-0.2-1.4-0.6c-0.2-0.1-0.3-0.3-0.4-0.5c-0.1-0.2-0.1-0.4-0.2-0.6c0-0.8-1.1-1.3-0.9-2.3c0.2-0.4,0.6-0.7,1.1-0.6l1.2,1
		c0.4,0.5,0.9,0.4,1.4,0.4L216.7,103.2z"/>
	<path id="Path_10" class="st9" d="M188.9,119.3l-0.6,1.4c-0.9,0-1.5-0.9-2.4-0.9l-0.4-0.3c-0.2-0.5-0.1-1.2-0.7-1.6
		c-0.3-0.3-0.5-0.7-0.5-1.1c0.1-0.7,0.5-1.2,1.1-1.6c0.3,0,0.7,0.1,0.9,0.3c0.4,0.3,0.8,0.8,1,1.3
		C187,118.1,188.9,118.1,188.9,119.3z"/>
	<path id="Path_11" class="st10" d="M212.8,133.9l-1.4,1c-0.2-0.1-0.3-0.3-0.5-0.4c-0.3-0.8-1.1-0.9-1.6-1.4c-0.5-0.6-0.8-1.3-0.9-2
		c0.1-0.2,0.3-0.3,0.5-0.4c0.6-0.2,1.3-0.3,2-0.4c0.2,0,0.5,0,0.7,0.1c0.3,0.3,0.7,0.6,1,1C213.1,132.1,213.6,132.9,212.8,133.9z"/>
	<path id="Path_12" class="st11" d="M225.3,122.7c0.7-1,1.5-0.3,2.2-0.1l0.9,0.6c0.3,0.5,0.3,1.1-0.1,1.6c-0.6,0.9-1.5,0.7-2.4,0.7
		c-0.2,0-0.4-0.1-0.6-0.2c-0.6-0.3-1-1-0.9-1.6C224.7,123.3,225,123,225.3,122.7z"/>
	<path id="Path_13" class="st12" d="M226.5,116.2l0,1.1c-0.2,0.2-0.3,0.6-0.7,0.7c-0.2,0-0.4-0.2-0.5-0.4c0.1-1.3,0.1-1.3-1-2
		c-0.1-0.3-0.2-0.6-0.2-1c0.1-0.9-0.9-1.8-0.2-2.8c0.2-0.1,0.4-0.2,0.6-0.3c0.6-0.1,1.2,0.1,1.5,0.6c0.1,0.2,0.2,0.4,0.2,0.6
		C226.1,113.9,227.2,115,226.5,116.2z"/>
	<path id="Path_14" class="st13" d="M199.6,104.1l0-0.9c1.6-2.3,2.3-2.4,4.4-0.7c0.1,0.2,0.2,0.4,0.1,0.7c-0.2,0.7-0.8,1.1-1.5,1.2
		C201.6,104.5,200.5,105.4,199.6,104.1z"/>
	<path id="Path_15" class="st7" d="M195.1,109.9c1.6-0.5,3.1-1.2,3.9-2.8c0.4,0.1,0.8,0.4,0.9,0.8c0.1,0.6,0.2,1.2,0.3,1.8
		c-0.1,0.5-0.5,0.7-0.8,0.9c-0.7,0.3-1.3,0.9-2.1,0.6c-0.5-0.3-1.1-0.6-1.7-0.8C195.3,110.2,195.2,110.1,195.1,109.9z"/>
	<path id="Path_16" class="st14" d="M200.1,100.2c0.6-1.4,0.1-3,0.9-4.4c0.6-0.3,1.2,0.2,1.7,0.1c1.3,0.3,0.7,1,0.4,1.6
		c0.1,1.4-0.9,1.9-1.8,2.4C200.9,100.2,200.6,100.4,200.1,100.2z"/>
	<path id="Path_17" class="st15" d="M231.3,108.5l-1.5,2.6c-0.2-0.1-0.4-0.2-0.5-0.3c-0.8-0.5-1.6-0.9-2.6-1.1
		c-0.4-0.1-0.8-0.4-1-0.8c-0.4-0.6-0.5-1.3-0.4-1.9c0.2-0.1,0.4-0.2,0.6-0.3c0.7,0.1,1.1,0.6,1.7,0.8c0.4,0.4,1,0.6,1.5,0.7
		c0.5,0,0.9-0.3,1.3-0.5C230.9,107.8,231.2,108.1,231.3,108.5z"/>
	<path id="Path_18" class="st16" d="M199.1,137.8c-0.2-1.6-0.9-3.2,0-4.9c0.4-0.1,0.6,0.1,0.8,0.3c0.2,0.6,0.5,1.1,0.9,1.6
		c0.1,0.2,0.1,0.4,0.1,0.6c-0.9,0.6,0.1,1,0.2,1.6c0.1,0.9-0.2,1.6-1.2,1.9C199.2,138.8,199.5,138.1,199.1,137.8z"/>
	<path id="Path_19" class="st17" d="M203.9,102.6c-1.6-1.3-3.1-0.9-4.3,0.6c0.5-0.8-0.2-1.8,0.5-2.5c0.7-0.2,1.4-0.6,1.9-1.1
		c0.2-0.1,0.4,0,0.6,0.1c0.6,0.5,1.1,1.1,1.5,1.8c0.1,0.3,0.2,0.7,0,1L203.9,102.6z"/>
	<path id="Path_20" class="st18" d="M228,101.7c0.2,1,1,1.4,1.7,1.8c-0.2,0.8-1.2,0.4-1.5,1.1c-0.2,0.1-0.4,0.1-0.6,0
		c-0.5-0.4-1.1-0.7-1.8-0.6c-0.3-0.1-0.6-0.4-0.6-0.7c0-0.6,0.3-1.1,0.7-1.5L228,101.7z"/>
	<path id="Path_21" class="st19" d="M199.5,133.3l-0.4-0.4c-0.7-0.6,0.2-1.3-0.1-2c-0.1-0.4,0.2-0.5,0.5-0.5c0.5,0.2,1,0.3,1.5,0.3
		c0.3,0.1,0.6,0.3,0.8,0.6c0.4,0.5,0.5,1.1,0.4,1.6c-0.3,0.7-0.9,1.1-1.6,1.2C200,134.1,199.8,133.7,199.5,133.3z"/>
	<path id="Path_22" class="st20" d="M231.9,130.4l0.9,1c0.5,0.8,0.1,1.5-0.4,2.1c-1.4,0.6-2.2-0.1-2.8-1.3c-0.1-1.3,0.9-1.6,1.9-1.8
		L231.9,130.4z"/>
	<path id="Path_23" class="st21" d="M202.6,96.4c-0.9,0.9-1-0.4-1.6-0.6c-1.2-1.4,0.2-2.3,0.6-3.4c0.8-0.2,1,0.4,1.5,0.8
		c0.1,0.2,0.1,0.4,0.1,0.6c-0.1,0.4-0.2,0.8-0.4,1.1c-0.1,0.4-0.2,0.8-0.2,1.2C202.6,96.2,202.6,96.3,202.6,96.4z"/>
	<path id="Path_24" class="st22" d="M198,125.6c-0.9-0.1-1.7-0.5-2.4-1c-0.1-0.7-0.3-1.4-0.6-2c0-0.2,0-0.4,0.1-0.6
		c0.9-0.8,1.6-0.5,2.2,0.4c0,1.1,1.6,1.1,1.6,2.2C198.9,125.1,198.5,125.5,198,125.6z"/>
	<path id="Path_25" class="st23" d="M203,93.3c-0.7,0.1-0.9-0.6-1.4-1c-0.1-0.4,0-0.8,0.4-1c0.4,0,0.9,0.1,1.1-0.4
		c1.3-0.9,1.7,0.4,2.3,1c-0.1,0.9-1.4,0.7-1.4,1.6C203.6,93.7,203.2,93.6,203,93.3z"/>
	<path id="Path_26" class="st24" d="M211.3,98.2c0.7,0.9,2.2,1.2,2,2.8c-0.5,0.6-1.4,0.5-1.8,1.1c-0.4,0.3-0.9,0.3-1.2-0.1
		c-0.1-0.1-0.1-0.2-0.2-0.3c-0.1-0.6,0-1.2,0.4-1.6C211,99.7,210.8,98.7,211.3,98.2z"/>
	<path id="Path_27" class="st25" d="M228.4,135.4c-0.6-0.7,0.7-1.3,0-2c1.3-0.6,2.1,0,2.9,1c0.2,0.5,0.2,1,0,1.4L228.4,135.4z"/>
	<path id="Path_28" class="st7" d="M199.5,130.4l-0.5,0.5c-1.1-1-1.2-2.6-0.4-3.8l0.3-0.1c0.3,0.1,0.5,0.3,0.6,0.6
		c0.2,0.5,0.6,1,1.2,1.3c1,1.2,0.2,1.5-0.8,1.6L199.5,130.4z"/>
	<path id="Path_29" class="st26" d="M223.1,105c-2.2-0.9,0.8-1.9,0-2.8c0.1,0,0.3,0,0.4-0.1c0.5-0.4,1.2-0.3,1.6,0.2
		c0.1,0.5-0.1,0.9-0.1,1.3c0,0.4-0.1,0.9-0.3,1.3C224.2,105.6,223.6,104.7,223.1,105z"/>
	<path id="Path_30" class="st27" d="M214.8,132l-1-0.1c-0.6-0.2-1-0.7-1.2-1.2c0.3-1.7,1.2-2,2.6-1.2c0.3,0.2,0.5,0.5,0.7,0.8
		c0.1,0.3,0.1,0.7,0,1.1C215.7,131.8,215.2,132.1,214.8,132z"/>
	<path id="Path_31" class="st28" d="M199.6,104.1c0.7-0.1,1.5,1.2,2.1-0.4c0.2-0.7,0.7,0.1,0.9,0.4c0.2,0.1,0.3,0.3,0.3,0.5
		c0,0.2,0,0.4-0.1,0.6c-0.4,0.6-1.1,0.6-1.6,1c-0.2,0.1-0.4,0.1-0.7,0.1c-0.8-0.3-1.2-1.3-0.9-2.1
		C199.5,104.2,199.6,104.1,199.6,104.1L199.6,104.1z"/>
	<path id="Path_32" class="st29" d="M211.3,134.3l0,0.5l-0.5,1.4c-0.2,0.3-0.6,0.4-0.9,0.2c0,0,0,0,0,0c0.2-1.6-1.4-0.9-2-1.5
		c-0.2-0.2-0.2-0.4-0.2-0.7c0.1-0.4,0.4-0.7,0.8-0.8C209.4,133.2,210.5,133.5,211.3,134.3z"/>
	<path id="Path_33" class="st30" d="M198,125.6l0.6-1c0.1-0.3,0.3-0.6,0.6-0.7c0.3-0.1,0.6,0,0.9,0.1c0.4,0.3,0.7,0.7,1,1.1
		c0,0.2,0,0.4-0.1,0.6c-0.4,0.4-0.8,0.7-1.3,0.9c-0.4,0.2-0.8,0.3-1.2,0.3c0,0.1,0,0.2,0,0.2L198,125.6z"/>
	<path id="Path_34" class="st31" d="M188.8,112.4l0.5-0.1c1,0,1.3,0.6,1.3,1.5c-0.1,0.5-0.4,1-0.8,1.3c-0.5,0.2-1,0.3-1.5,0.1
		c-0.4-0.2-0.7-0.6-0.8-1.1C187.5,113.1,188.7,113.2,188.8,112.4z"/>
	<path id="Path_35" class="st32" d="M233.7,103.6c-0.9,0.5-2,0.5-2.8-0.1c-0.2-0.7,0.5-0.9,0.8-1.2c0.5-0.3,0.9-0.9,1.6-0.7
		C234.1,102.1,233.1,103,233.7,103.6z"/>
	<path id="Path_36" class="st33" d="M208.9,137.8l-0.5,0.5c-0.8,0.5-1.2,1.8-2.4,1.1c-0.2-0.1-0.4-0.2-0.6-0.3
		c-0.3-0.2-0.5-0.5-0.4-0.8c0.2-0.5,0.7-0.9,1.2-1c0.4-0.2,0.8-0.3,1.2-0.4c0.3,0,0.7,0,1,0.1C208.6,137.2,208.8,137.5,208.9,137.8z
		"/>
	<path id="Path_37" class="st34" d="M184.5,116.7l0.6,1c0.1,0.8-0.4,0.9-1,0.8c-1-0.4-1.7-1-1-2.2
		C183.6,115.9,184.2,115.7,184.5,116.7z"/>
	<path id="Path_38" class="st7" d="M192.7,110.9c0.6-0.6,1.5-1,2.4-1l0.1,0.1c0.7,0.4,1.7,0.6,1.2,1.8c-0.2,0.3-0.5,0.5-0.9,0.6
		c-0.2,0-0.5,0-0.7-0.1c-0.6-0.2-1.1-0.6-1.7-0.9C193,111.2,192.8,111.1,192.7,110.9z"/>
	<path id="Path_39" class="st7" d="M212.8,131c0.5,0,0.9,0.3,1,0.8c0,0.1,0,0.1,0,0.2c-0.2,0.7,0.6,1.9-1,1.9
		c0.2-0.9-0.1-1.8-0.9-2.4C212,131,212.2,130.7,212.8,131z"/>
	<path id="Path_40" class="st35" d="M195.2,122.5c1.7,0.4,1,1.2,0.4,2.1c-0.4,0-0.9,0-1.1-0.5c-0.4-0.4-1.2-0.3-1.1-1.1
		c0.1-0.2,0.2-0.4,0.4-0.6C194.3,122.2,194.8,122.2,195.2,122.5z"/>
	<path id="Path_41" class="st36" d="M199.5,105.4l1,0.6c0.3,0.7,0.9,1.1,1.2,1.8c0,0.2,0,0.4-0.1,0.6c-0.2,0.2-0.4,0.3-0.6,0.3
		c-0.6,0-1.1-0.3-1.4-0.8L199,107C199.4,106.6,198.9,105.8,199.5,105.4z"/>
	<path id="Path_42" class="st37" d="M192.7,110.9l0.5,0.1c0.3,0.4,0.8,0.6,1.1,1c0,0.4-0.2,0.9-0.6,1.1c-0.2,0.1-0.4,0.2-0.6,0.2
		c-0.6,0-1.1-0.2-1.6-0.5c-0.3-0.2-0.4-0.5-0.4-0.9L192.7,110.9z"/>
	<path id="Path_43" class="st7" d="M231.3,135.8l-0.4-0.8c0.4-0.6,0.9-1.1,1.4-1.6c0.5-0.5,0.7-1.3,0.5-2
		C233.6,133.3,233.7,135,231.3,135.8z"/>
	<path id="Path_44" class="st38" d="M228.8,129.5c0.4-0.8,1.5-0.4,2-1c0.8,0.4,0.4,1.5,1,2l-0.1,0.1c-1,0.3-2,0.3-3,0
		C228.6,130.2,228.6,129.8,228.8,129.5z"/>
	<path id="Path_45" class="st7" d="M204.1,93.3c-0.8-1.5,1-0.8,1.2-1.4c0.8,0.2,1.8,0.1,1.1,1.4c-0.5,0.2-1,0.4-1.5,0.4
		C204.6,93.7,204.3,93.6,204.1,93.3z"/>
	<path id="Path_46" class="st7" d="M184.5,116.7c-0.4-0.5-1-0.3-1.5-0.5c0.1-0.9,0.7-1.7,1.6-1.8c0.3,0.3,0.8,0.5,0.6,1L184.5,116.7
		z"/>
	<path id="Path_47" class="st39" d="M193.8,122.8c0,0.2-0.1,0.3-0.1,0.5c-0.3,0.2-0.6,0.2-0.9,0c-0.6-0.3-1.2-0.4-1.5-1.1
		c0-0.3,0.1-0.6,0.1-1c0.1-0.1,0.3-0.2,0.5-0.2c0.3,0.1,0.7,0.1,1-0.1c0.2,0,0.4,0,0.5,0.1C194,121.6,193.8,122.2,193.8,122.8z"/>
	<path id="Path_48" class="st40" d="M233.3,101.6c-0.6,0.2-0.6,1.2-1.4,1c-0.4,0.1-0.8-0.1-1-0.4l0-0.2l-0.1-0.3
		C231.6,99.8,232.4,101.1,233.3,101.6z"/>
	<path id="Path_49" class="st41" d="M185.2,115.4c-0.5-0.1-0.5-0.6-0.6-1l1.8-0.6c0.3-0.2,0.7-0.2,1,0c0.3,0.8-0.1,1.7-0.8,2.1
		c-0.2,0.1-0.4,0.1-0.7,0L185.2,115.4z"/>
	<path id="Path_50" class="st42" d="M200.5,141.7l-1-1.5c-0.1-0.2-0.1-0.4,0-0.6c0.3-0.2,0.7-0.2,1-0.1c0.6,0.3,1.2,0.7,1.7,1.2
		c0.1,0.3,0.1,0.7-0.1,1c-0.2,0.2-0.4,0.3-0.6,0.3C201.1,142.1,200.8,142,200.5,141.7z"/>
	<path id="Path_51" class="st43" d="M184,118.5l1-0.8c1.8,0.2,0.5,1.1,0.4,1.7C184.6,119.7,184.2,119.3,184,118.5z"/>
	<path id="Path_52" class="st44" d="M205.1,138.2l0.4,0.6c0.3,0.6,0.1,1.3,0.4,2l-1,1.3c-0.6,0.6-0.6-0.2-0.9-0.4
		c-0.2-0.4-0.3-0.9-0.3-1.3c0.1-0.7,0.2-1.3,0.5-1.9c0.1-0.2,0.3-0.3,0.6-0.3L205.1,138.2z"/>
	<path id="Path_53" class="st45" d="M226.5,116.2c0.6-1.2-1.7-2-0.5-3.3c0.6,0,1.1,0.3,1.4,0.8c0.1,0.5,0.6,1.1,0,1.6L226.5,116.2z"
		/>
	<path id="Path_54" class="st46" d="M231.3,108.5l-0.9-0.5c-0.3-0.2-0.4-0.5-0.4-0.9c0.1-0.2,0.2-0.4,0.4-0.6l2,0
		C232.3,107.3,231.9,108,231.3,108.5z"/>
	<path id="Path_55" class="st47" d="M207,94.3c0.4-0.1,0.7,0.1,0.9,0.4c0.3,0.5,0,0.8-0.4,1.1c-0.6,0.2-1.2,0.3-1.8,0.3
		c-0.1,0-0.2-0.1-0.3-0.1c-0.2-0.2-0.3-0.4-0.4-0.6c-0.1-0.5,0.1-1,0.5-1.3C206.1,93.9,206.6,94,207,94.3z"/>
	<path id="Path_56" class="st7" d="M191.2,111.9l0.4,0.5c0.4,0.8,0,1.3-0.7,1.6c-0.2,0-0.4-0.1-0.6-0.3c-0.1-0.6-0.5-1.2-1.1-1.5
		C189.9,111.7,190.6,112,191.2,111.9z"/>
	<path id="Path_57" class="st7" d="M201.5,141.7l0.6,0c0.1,0.1,0.2,0.3,0.3,0.5c0,0.5,0.2,0.9,0.6,1.2c0,0.1,0.1,0.2,0.1,0.3
		c-0.8,0.7-1.9,0.7-2.7-0.1c-0.1-0.1-0.2-0.2-0.3-0.4C200.2,142.5,201,142.2,201.5,141.7z"/>
	<path id="Path_58" class="st48" d="M227,113.9l-1-1.1c0-0.2,0-0.3,0-0.5c0.3-1.2,1.1-0.5,1.7-0.3c0.4,0.4,0.7,0.7,0.2,1.3
		c-0.1,0.1-0.1,0.3-0.1,0.4C227.6,114.2,227.3,114.1,227,113.9z"/>
	<path id="Path_59" class="st7" d="M204.4,141.3c0,0.3,0.1,0.6,0.5,0.6c-0.2,0.9-0.9,1.6-1.9,1.7l-0.1-0.1c-0.4-0.6-0.2-1.1,0.1-1.6
		C203.4,141.6,203.7,141,204.4,141.3z"/>
	<path id="Path_60" class="st7" d="M206,138.8c1.2,1.5,1.4-1.1,2.4-0.5c-0.5,0.8-0.6,1.8-1.8,2C205.8,140,205.4,139.6,206,138.8z"/>
	<path id="Path_61" class="st7" d="M214.8,132l0.9-0.6c0.7-0.3,1.5-0.1,1.9,0.5c0,0.3,0.1,0.6,0.1,0.9
		C216.8,132.5,215.6,132.8,214.8,132z"/>
	<path id="Path_62" class="st49" d="M208.9,96.3c0.4,0.9,2,0.6,1.9,2l-0.2,0.2c-0.3,0.1-0.6,0.1-0.9,0.1c-0.5-0.2-0.8-0.6-1-1.1
		c-0.1-0.3-0.1-0.6,0-0.9L208.9,96.3z"/>
	<path id="Path_63" class="st7" d="M208.9,137.8l-0.5-0.5c0-1.1,0.8-1,1.5-0.9l1-0.2C210.5,137.1,209.8,137.7,208.9,137.8z"/>
	<path id="Path_64" class="st50" d="M206,138.8l0.6,1.4l-0.7,0.5c-1.6-0.3-0.7-1.2-0.4-2L206,138.8z"/>
	<path id="Path_65" class="st51" d="M201.5,141.7c-0.3,0.7-0.3,1.7-1.4,1.6c-0.9-0.8,0.1-1.1,0.5-1.5L201.5,141.7z"/>
	<path id="Path_66" class="st7" d="M225,102.6c-0.3-0.8-1-0.4-1.5-0.5c0.7-0.8,1.6-0.3,2.4-0.5c0,0.5,0.1,1.1-0.5,1.5
		C225,103.2,224.7,103.2,225,102.6z"/>
	<path id="Path_67" class="st7" d="M185.9,119.8c0.9-0.4,2,0,2.4,0.9c0,0.2,0,0.3,0,0.5C187.4,121,186.6,120.5,185.9,119.8z"/>
	<path id="Path_68" class="st52" d="M229.8,126.5c-0.4,0.1-0.8-0.1-0.9-0.5c-0.6-0.4-1-0.8-0.5-1.6c0.4-0.2,0.7-0.2,1,0.2
		L229.8,126.5z"/>
	<path id="Path_69" class="st53" d="M207,94.3l-1.6,0c-0.7-0.1-0.9-0.4-0.3-0.9c0.5,0.1,0.9-0.6,1.4-0.1L207,94.3z"/>
	<path id="Path_70" class="st54" d="M211.3,101.6c0.3-1.3,1.1-1,2-0.6l0.3,0.6l-0.7,0.5C212.3,102.3,211.7,102.1,211.3,101.6z"/>
	<path id="Path_71" class="st55" d="M202.1,99.8c-0.4,1-1,1.4-2,0.8c0-0.2,0-0.3,0-0.5l0.8-0.5C201.3,99.4,201.7,99.3,202.1,99.8z"
		/>
	<path id="Path_72" class="st7" d="M187.3,113.9l-0.9-0.1l2.4-1.4c0.6,1.2-0.8,0.8-1,1.4C187.7,114,187.5,114.1,187.3,113.9z"/>
	<path id="Path_73" class="st56" d="M203,90.9c0.5,0.4,0.4,0.8-0.1,1.1c-0.6,0.3-0.8-0.2-1-0.6C202.2,91,202.6,91,203,90.9z"/>
	<path id="Path_74" class="st57" d="M227.9,113.4c0-0.4,0-0.9-0.5-1.1c-0.1-0.5,0.2-0.9,0.7-1.1c0.3-0.1,0.7,0,1,0.2
		c0.2,0.3,0.1,0.7-0.1,1L227.9,113.4z"/>
	<path id="Path_75" class="st7" d="M230.8,101.6c0,0.1,0,0.2,0.1,0.3c-0.9,0.4-1.6-0.3-2.4-0.4C229.2,100.8,230,101.3,230.8,101.6z"
		/>
	<path id="Path_76" class="st58" d="M211.3,98.2c-0.2,0.6,1.3,1.7-0.5,1.9c-0.1-0.1-0.2-0.1-0.3-0.2c-0.4-0.4-0.4-1.1,0-1.5
		c0.1-0.1,0.2-0.2,0.3-0.2l0,0L211.3,98.2z"/>
	<path id="Path_77" class="st59" d="M207.4,95.8l0.6-1.1c0.5,0.4,0.9,0.9,0.9,1.6c0,0.1,0,0.2,0,0.3c-0.5,0.2-1.1-0.1-1.4-0.5
		C207.5,96,207.4,95.9,207.4,95.8z"/>
	<path id="Path_78" class="st7" d="M229,112.4l0-0.9c-0.3-0.2-0.4-0.6-0.3-1c0.6-0.6,0.8,0,1.1,0.3c0,0.1,0,0.2,0,0.2
		C229.8,111.7,229.5,112.2,229,112.4z"/>
	<path id="Path_79" class="st7" d="M229.4,124.7l-0.9-0.1c-0.2,0.2-0.3,0.2-0.5,0c0.1-0.5,0.7-0.8,0.4-1.4
		C228.9,123.5,229.2,124.1,229.4,124.7z"/>
	<path id="Path_80" class="st7" d="M192.8,123.2l0.9,0l0.9,0.9C193.8,124.3,193.1,123.9,192.8,123.2z"/>
	<path id="Path_81" class="st7" d="M199.6,139.8c0,0.2,0,0.3-0.1,0.4c-0.7-0.7-0.3-1.6-0.4-2.5l0.5,1
		C199.9,139,199.9,139.5,199.6,139.8z"/>
	<path id="Path_82" class="st7" d="M227.4,121.2c-0.4,0-0.8,0.6-1,0.2c-0.1-0.2,0.4-0.8,0.6-1.2
		C227.1,120.5,227.3,120.9,227.4,121.2z"/>
	<path id="Path_83" class="st7" d="M225.9,117.8l0.5-0.5l0,2l-0.5,0C224.7,118.8,225.7,118.3,225.9,117.8z"/>
	<path id="Path_84" class="st7" d="M216.2,103.1c-0.8,1-1.2,0.6-1.4-0.4C215.3,102.6,215.8,102.5,216.2,103.1z"/>
	<path id="Path_85" class="st7" d="M227,113.9l0.8-0.2c0.8,0.8,0.1,1.1-0.5,1.5C227.5,114.8,227.2,114.4,227,113.9z"/>
	<path id="Path_86" class="st60" d="M217.7,126.5c0,0.1,0,0.3,0,0.4c0,0.3-0.2,0.6-0.4,0.9c-0.3,0.3-0.7,0.5-1.2,0.5
		c-0.3-0.1-0.6-0.3-0.7-0.6c-0.3-1.4-2.1-0.2-2.4-1.5c0-0.2,0-0.4,0.1-0.6c0.4-0.5,1.1-0.8,1.7-0.7c-0.6-0.2-1-0.8-1-1.5
		c0.1-0.3,0.3-0.6,0.6-0.8c0.6-0.1,1.2-0.5,1.6-1c0.5-0.5,1.3-0.6,1.8-0.2c0.2,0.1,0.3,0.3,0.5,0.5c0.1,0.4,0.1,0.9-0.2,1.2
		C218.3,124.2,217.3,125.3,217.7,126.5z"/>
	<path id="Path_87" class="st61" d="M224,133.4l-2,0c-1.3-1-1-2.7-1.9-3.9c-0.1-0.8,0.5-1.5,1.2-1.6c0,0,0.1,0,0.1,0
		c0.9,0.1,1.4,0.9,2.3,1.1c0.4,0.1,0.8,0.4,1,0.8c0,0.2,0,0.4,0,0.6c-0.4,0.6,0,1.2,0.1,1.8C224.8,132.8,225,133.5,224,133.4z"/>
	<path id="Path_88" class="st62" d="M217.7,126.5c0.3-0.6-2.4-0.1-0.5-1.3c0.6-0.4,0.6-1.1,0.1-1.7c-0.5-0.6-0.3-0.8,0.4-0.8
		c0.7,0,1.3,0.3,1.7,0.8c0.1,0.3,0.2,0.6,0.2,0.9c0,0.2,0,0.4-0.1,0.6c-0.1,0.4,0,0.7,0.3,1c0.1,0.2,0,0.4-0.2,0.5L217.7,126.5z"/>
	<path id="Path_89" class="st63" d="M219.5,126.5c0-0.1,0-0.2,0-0.3c0.1-0.2,0.3-0.4,0.6-0.4c1.2-0.1,1.5,0.7,1.7,1.6
		c0,0.2-0.1,0.5-0.2,0.7l-1.4,1.4C218.2,128.9,219.7,127.5,219.5,126.5z"/>
	<path id="Path_90" class="st64" d="M217.6,132c-0.7,0.1-1.4-0.1-1.9-0.5c0-0.3,0-0.6,0-1c0.4-0.4,1.1-0.5,1.6-0.1
		C217.4,131,219.2,131.1,217.6,132z"/>
	<path id="Path_91" class="st65" d="M217.3,130.4l-1.6,0.1l-0.6-0.5c-0.1-0.7,0.4-0.9,0.8-1.2c0.3-0.1,0.6-0.2,0.9-0.2
		c0.2,0,0.4,0.1,0.5,0.3L217.3,130.4z"/>
	<path id="Path_92" class="st66" d="M217.2,127.6l0.6-0.6c1.5,1-0.3,1.3-0.4,2c-0.1,0-0.2,0.1-0.3,0.1
		C216.7,128.5,216.8,128,217.2,127.6z"/>
	<path id="Path_93" class="st67" d="M230.4,106.6c0,0.1-0.1,0.3-0.1,0.4c-0.3,0.3-0.7,0.5-1.1,0.6c-0.6,0.1-1.2,0-1.8,0.4
		c-0.8,0.2-0.9-0.7-1.5-0.9c-0.2-0.4,0-0.8-0.2-1.2c0-0.5,0-1-0.1-1.4c0-0.3,0.1-0.6,0.3-0.8c1.3-1.1,1.9-0.7,2.1,0.9
		c-0.1,1.9,1.8,0.5,2.3,1.5C230.4,106.2,230.4,106.4,230.4,106.6z"/>
	<path id="Path_94" class="st68" d="M230.4,106c-0.6-0.8-3.1,1.5-2.3-1.5l0.2,0C228.7,105.4,230.5,104.3,230.4,106z"/>
	<path id="Path_95" class="st69" d="M230.8,102.2c0.4-0.1,0.8,0.1,1,0.4l-1,1C230,103.1,230.7,102.6,230.8,102.2z"/>
	<path id="Path_96" class="st70" d="M215.2,106c0-1.5,1.4-0.9,2-1.4c0.1,0.3,0.4,0.8,0.4,0.8c-1.2,1.1-0.7,1.5,0.6,1.8
		c0.2,0,0.3,0.5,0.4,0.8c0.6,0.5,0.3,0.8-0.1,1.2c-0.8,0.3-1.7,0-2.3-0.6c-0.4-0.4-0.7-0.9-0.9-1.4C215,106.8,215,106.4,215.2,106z"
		/>
	<path id="Path_97" class="st71" d="M218.1,109c0.3-0.2,0.5-0.6,0.4-0.9l0.7-0.6c0.6-0.2,1.3-0.1,1.9,0.2l0.1,1
		c-0.8,0.8-1.6,1.6-3,1C218,109.5,218,109.2,218.1,109C218.1,109,218.1,109,218.1,109z"/>
	<path id="Path_98" class="st72" d="M221,107.6c-0.7,0.4-1.3,1-1.9-0.2c0-0.6-0.1-1.3,0.9-1.3C220.7,106.3,221.3,106.6,221,107.6
		L221,107.6z"/>
	<path id="Path_99" class="st73" d="M221.1,107.5l-1-1.4c0.3-0.4,0.4-1.2,1.1-0.5C220.7,106.2,221.9,106.9,221.1,107.5z"/>
	<path id="Path_100" class="st74" d="M220.1,103.6l0.3,1c-0.4-0.2-1,0.7-1.2,0.1C218.9,103.9,219.4,103.6,220.1,103.6z"/>
	<path id="Path_101" class="st75" d="M218.1,109.5c1.2,0.3,1.9-1.1,3-0.9c0.1,0.1,0.2,0.3,0.3,0.4c1-0.2,0.9,0.5,1,1.1
		c-0.1,0.4-0.2,0.7-0.4,1c-0.3,0.5-0.7,0.9-1.3,1.1c-0.5,0-1.1,0.1-1.6,0c-0.2,0-0.4-0.1-0.6-0.2c-0.3-0.2-0.7-0.5-1-0.8
		c-0.4-0.2-0.7-0.5-1-0.8C216.3,108.9,217.3,109.4,218.1,109.5z"/>
	<path id="Path_102" class="st76" d="M222.1,108c0.2-0.7,0.4-1.4,0.8-2.8c0,1.9,0.6,2.2,1.6,1.7c0.2,0.1,0.3,0.3,0.4,0.5
		c0.2,0.5,0.3,1.1,0.5,1.7c0.2,0.7-0.1,1.4-0.7,1.8c-1.2,0.2-1.2-1.1-1.8-1.6C222.6,108.9,222.4,108.4,222.1,108z"/>
	<path id="Path_103" class="st77" d="M224.5,107.5c0-0.2,0-0.4,0-0.5c0-0.3,0-0.5,0-0.8c0-0.3,0.2-0.6,0.5-0.7
		c0.4-0.1,0.8,0.1,0.9,0.5c0,0,0,0,0,0.1c0.6,0.3,0,0.7,0.1,1.1c-0.1,0-0.2,0-0.3,0C225.3,107.3,225.1,107.8,224.5,107.5z"/>
	<path id="Path_104" class="st78" d="M222.1,108c0.7-0.1,1.1,0.2,1,0.9c0.1,0.8,0.3,1.6-1,1.4c-0.1-0.5,0-1.2-0.6-1.5L222.1,108z"/>
	<path id="Path_105" class="st79" d="M225.1,105.5l-0.6,0.6l-1.4-1.1c0.5-1.2,0.9-0.1,1.4,0.1C224.9,104.9,225.1,105.1,225.1,105.5z
		"/>
	<path id="Path_106" class="st80" d="M225.9,117.8c0.2,0.5-0.5,1,0,1.5c0,1.5-0.7,1.6-1.9,1c-0.5-0.5-0.6-1.3-0.3-1.9
		c0.4-0.6,1-1.1,1.8-0.6C225.6,117.8,225.8,117.8,225.9,117.8z"/>
	<path id="Path_107" class="st81" d="M223,122.7l1,0.5c0.2,0.1,0.3,0.3,0.3,0.5c0,0.4-0.1,0.8-0.3,1.2c-0.2,0.4-0.5,0.7-0.9,0.9
		c-0.2,0-0.4,0-0.6-0.1c-0.2-0.3-0.4-0.5-0.4-0.9c-0.2-0.4-0.2-0.9-0.2-1.3C222,122.9,222.2,122.4,223,122.7z"/>
	<path id="Path_108" class="st82" d="M223.5,120.4l-1,0.3c-0.5-0.9-0.9-2-1.1-3c0.1-0.4,0.4-0.7,0.8-0.7c0.4,0,0.8,0.1,1.1,0.4
		C223.7,118.3,223.8,119.4,223.5,120.4z"/>
	<path id="Path_109" class="st83" d="M221.6,117.7c1.1,0.8,1,1.9,0.9,3c-0.1,0-0.3,0-0.4,0c-0.4-0.2-0.7-0.4-0.9-0.7
		c-0.3-0.3-0.4-0.7-0.4-1.1c0.1-0.3,0.2-0.6,0.4-0.8C221.3,117.9,221.4,117.7,221.6,117.7z"/>
	<path id="Path_110" class="st84" d="M223,122.7c-0.5,0.2-0.8,0.6-0.9,1c-0.2,0.1-0.4,0.2-0.7,0.1c-0.5-0.2-0.8-0.6-0.8-1.1
		c0-0.4,0.1-0.7,0.3-1c0.2-0.2,0.4-0.2,0.6,0L223,122.7z"/>
	<path id="Path_111" class="st85" d="M223.5,120.4c-0.2-1-0.4-2-0.5-3.1c0.5-0.3,0.8,0,1.2,0.3c0.1,0.2,0,0.4-0.1,0.6
		c0,0.7,0,1.3,0,2L223.5,120.4z"/>
	<path id="Path_112" class="st86" d="M224,123.6c0-0.2,0-0.3,0-0.4c0.6,0.2,0.2-2,1.3-0.5c0.4,0.8-0.3,0.9-0.8,1.1
		C224.3,123.9,224.1,123.8,224,123.6C224,123.6,224,123.6,224,123.6z"/>
	<path id="Path_113" class="st87" d="M221.5,121.7h-0.2h-0.2c-0.4-0.2-0.6-0.6-0.7-1c0-0.7,0.7-0.7,1.1-0.9c0.5,0.1,0.5,0.5,0.5,0.9
		L221.5,121.7z"/>
	<path id="Path_114" class="st88" d="M223,125.5l0.6-0.7c1-0.9,1.1,0.4,1.6,0.6c0.3,0.1,0.5,0.3,0.7,0.6c0.1,0.4,0.4,0.7,0,1.1
		c-0.1,0-0.2,0-0.4,0c-0.6,0.6-1.3,0.9-2.1,0.9C221.5,127.3,222.4,126.4,223,125.5z"/>
	<path id="Path_115" class="st89" d="M224.5,130.3c0-0.1,0-0.2,0-0.3c0.2-0.5,0.4-0.9,0.8-1.3c0.2-0.2,0.5-0.3,0.8-0.4l1.4,0.6
		c0.7-0.1,0.7,0.5,0.8,0.9c0.1,0.5-0.1,1-0.6,1.2c-0.2,0.1-0.4,0.1-0.7,0.1c-0.6-0.3-1.2-0.4-1.8-0.4
		C224.9,130.8,224.6,130.7,224.5,130.3z"/>
	<path id="Path_116" class="st90" d="M226.1,128.4l-0.7,0.7c-0.7,0.3-1.5-0.2-2.2,0c-0.7-0.8-0.3-1.2,0.5-1.5
		c0.5-0.4,1.2-0.6,1.9-0.6L226.1,128.4z"/>
	<path id="Path_117" class="st91" d="M228,124.6c0.2,0,0.3,0,0.5,0c-0.2,0.6,0.3,1,0.4,1.4l-1.6,0.1c-0.2,0.1-0.4,0.1-0.6,0
		c-0.4-0.3-1-0.3-0.7-1C226.5,124.4,227.6,125.6,228,124.6z"/>
	<path id="Path_118" class="st92" d="M226.9,126c0.1,0,0.2,0.1,0.4,0.1c-0.4,0.4-0.2,2-1.5,0.9c-0.1-0.3-0.2-0.6-0.4-1
		C225.9,125.7,226.5,125.7,226.9,126z"/>
	<path id="Path_119" class="st93" d="M227.9,130c-0.1-0.4,0-0.8-0.4-1c1-1.2,0.8,0.7,1.4,0.5c0,0.3,0,0.6,0,1
		C228.3,130.7,228.2,130.3,227.9,130z"/>
	<path id="Path_120" class="st94" d="M191.5,118.3l-1.2-1c-0.3-0.5,0-0.8,0.4-1.1c0.6-0.2,1.3-0.2,1.9,0.2c0.2,0.1,0.4,0.2,0.6,0.4
		c0.4,0.3,0.6,0.6,0.8,1c0.1,0.2,0.1,0.5,0,0.7c-0.1,0.2-0.2,0.4-0.4,0.6c-0.3,0.2-0.7,0.2-1.1,0.2
		C192,119.1,191.6,118.8,191.5,118.3z"/>
	<path id="Path_121" class="st95" d="M188.9,119.3c-0.9-0.6-2.3-0.8-2-2.4c0.2-0.3,0.5-0.5,0.9-0.5c0.5,0,0.9,0.4,1,0.9
		C188.8,117.9,190.7,118.5,188.9,119.3z"/>
	<path id="Path_122" class="st96" d="M188.7,117.3l-0.9-0.5c-0.2-0.3-0.4-0.7-0.4-1c0.1-0.5,0.2-1.1,0.9-0.9l1.5-0.1
		c0.4,0.5,0.4,1.3-0.1,1.7c-0.1,0.1-0.3,0.2-0.5,0.3L188.7,117.3z"/>
	<path id="Path_123" class="st97" d="M191.5,118.3l1.2,0.6c0.2,0.2,0.4,0.5,0.4,0.8c-0.1,0.5-0.2,1-0.3,1.5
		c-0.3,1.4-0.8,0.5-1.2,0.1c-0.1-0.5-0.4-1-0.3-1.6C191.3,119.2,191.4,118.7,191.5,118.3z"/>
	<path id="Path_124" class="st98" d="M189.3,116.8c0.2-0.7,0.4-1.3,0.6-2l0.5-1c0.1,0.1,0.2,0.1,0.4,0.1c0.2,0.2,0.4,0.5,0.4,0.9
		c-0.1,0.5-0.2,1-0.3,1.5l-0.5,1L189.3,116.8z"/>
	<path id="Path_125" class="st99" d="M191.2,119.6c0.8,0.4,0.4,1,0.3,1.6l-0.2,0c-0.3-0.7-1.5-0.2-1.4-1.2
		C190,119.8,190.8,119.7,191.2,119.6z"/>
	<path id="Path_126" class="st100" d="M232.3,133.4c0.7,1.5-0.5,1.4-1.4,1.6c0-1.7-1.6-1.2-2.4-1.7l-0.1-0.5c-0.2-0.3-0.2-0.8,0-1.1
		c0.4-0.3,1.1-0.3,1.4,0.1C230.1,133,231.2,133.6,232.3,133.4z"/>
	<path id="Path_127" class="st101" d="M224,133.4c0.6-0.4,0.4-1,0.4-1.5c0.5-1.1,1.4-0.5,2.1-0.4c0.2,0.1,0.3,0.3,0.4,0.5
		C226.1,132.6,226.1,135.3,224,133.4z"/>
	<path id="Path_128" class="st102" d="M227,132l-0.2-0.1l-0.2,0c-0.2-0.1-0.3-0.3-0.3-0.5c0.1-0.3,0.4-0.5,0.7-0.6
		c0.1,0,0.3,0.1,0.4,0.1c0.3,0.3,1.3-0.1,1,1c0,0.3,0,0.6,0,0.9C227.5,133.2,227.5,132.3,227,132z"/>
	<path id="Path_129" class="st103" d="M211.3,101.6c0.5,0.2,1.2-0.1,1.6,0.5c-0.3,1.1,2.1,1.3,1,2.7c-1.5,0.4-2.5-0.9-3.7-1.3
		c-0.6-0.3-0.8-1.1-0.5-1.7c0.1-0.2,0.4-0.3,0.6-0.2C210.6,102.2,210.9,102.1,211.3,101.6z"/>
	<path id="Path_130" class="st104" d="M210.3,103.3c1.5-0.3,2.2,1.3,3.6,1.4l0,0.1c-0.1,0.7-0.6,0.9-1.2,1c-1-0.4-2.1-0.6-2.5-1.9
		C210.1,103.7,210.2,103.5,210.3,103.3z"/>
	<path id="Path_131" class="st105" d="M215.2,106c0.6,0.3,0.1,0.7,0.1,1c-0.3,0.7-1.1,1.1-1.8,0.9c-0.5-0.1-0.9-0.5-0.9-1
		c0-0.2,0.1-0.4,0.3-0.6c0.6-0.3,1.1-0.8,1.5-1.3L215.2,106z"/>
	<path id="Path_132" class="st70" d="M214.2,105c0.2,1.2-0.3,1.6-1.5,1.4c-0.4-0.2-0.7-0.4-0.5-0.9l1.5-0.7
		C213.9,104.9,214.1,105,214.2,105z"/>
	<path id="Path_133" class="st106" d="M187.8,115.8l0,0.9l-0.9,0.2l-0.9-1c0.2,0,0.3,0,0.4-0.1C186.8,115.4,187.4,115.4,187.8,115.8
		z"/>
	<path id="Path_134" class="st66" d="M216.3,129l-1.3,1.1c-1.3-1.1-1.8-0.1-2.3,0.9l-0.9,0.5c-0.4-0.2-0.6-0.6-0.6-1
		c0.2-0.5,0.5-0.9,0.6-1.4c0.2-0.7,0.5-1.3,0.9-1.7c1-0.1,2-1.3,2.8,0.3l0.6,0.5C216.5,128.3,216.5,128.7,216.3,129z"/>
	<path id="Path_135" class="st107" d="M208.5,133.9l-0.6,0.5c-0.3,0.4-0.8,0.5-1.3,0.3c-0.2-0.1-0.4-0.3-0.4-0.5
		c0-1-0.7-1.4-1.5-1.6c-0.4-0.2-0.6-0.7-0.4-1.1c0.6-0.5,1.2-0.9,2-1.2c0.5-0.2,1.1-0.1,1.6,0.2c0.2,0.1,0.4,0.3,0.5,0.5
		c0.4,0.6,1.2,1,1,1.9C208.9,133.1,208.5,133.3,208.5,133.9z"/>
	<path id="Path_136" class="st108" d="M212.8,127.5c0,0.7-0.2,1.5-0.6,2.1c-0.5,0.2-1,0.5-1.4,0.8c-0.5,1-1.4,0.6-2.2,0.6
		c-0.3-0.5-0.4-1.2-0.2-1.8c0.3-1,1.2-1.8,2.3-2c0.6,0,1.2,0.1,1.9,0.2C212.6,127.4,212.7,127.4,212.8,127.5z"/>
	<path id="Path_137" class="st109" d="M208.5,133.9c-0.2-0.4-0.9-0.8-0.5-1.4c0.5-0.7,0.8,0.5,1.4,0.3c1,0.1,2,0.2,1.9,1.5
		L208.5,133.9z"/>
	<path id="Path_138" class="st110" d="M208.8,129.2c-0.1,0.6-0.1,1.1-0.2,1.7l-0.1,0l-0.1,0c-0.1,0-0.3,0-0.4,0.1
		c-0.4-0.3-0.6-0.9-0.5-1.4c0.1-0.3,0.2-0.5,0.4-0.7C208.3,128.7,208.6,128.7,208.8,129.2z"/>
	<path id="Path_139" class="st111" d="M210.9,130.3c0-1,0.5-1.3,1.4-0.8c0.1,0.7-0.3,0.9-0.9,0.9C211.1,130.4,211,130.4,210.9,130.3
		z"/>
	<path id="Path_140" class="st112" d="M225.1,125.6c-0.9,0.4-0.4-1.6-1.5-0.9l0.4-1.1l0.5,0.2l0.9,1.2
		C225.5,125.3,225.2,125.4,225.1,125.6z"/>
	<path id="Path_141" class="st113" d="M225.1,125.6l0.4-0.6l0.6,0.1l0.9,0.9l-1.5,0L225.1,125.6z"/>
	<path id="Path_142" class="st114" d="M224,111.9c-0.5,0.9,1,1.5,0.4,2.5c-0.6,0.2-0.5,0.7-0.6,1.1c-0.1,0.3-0.4,0.5-0.8,0.5
		c-0.4-0.1-0.8-0.4-1-0.8c0-0.9-1.7-0.9-1.2-2.1c0.3-0.7,0.8-1.2,1.4-1.6C222.9,111.3,223.6,111.4,224,111.9z"/>
	<path id="Path_143" class="st115" d="M224,111.9l-1.9-0.1c-0.5-0.2-0.5-0.6-0.5-1l0.4-0.4c1,0,0.5-1,1-1.4c1.1,0.2,0.8,1.4,1.4,2
		c0.1,0.1,0.2,0.3,0.3,0.4c0,0.2-0.1,0.3-0.3,0.4C224.3,111.8,224.2,111.9,224,111.9z"/>
	<path id="Path_144" class="st116" d="M223.1,115.8l0.4-0.4c0.2-0.3,0.6-0.3,0.9-0.1c0,0,0.1,0.1,0.1,0.1c1.2,0.4,1.2,1.4,1,2.4
		l-1.5,0.5c0-0.2,0-0.3,0-0.5C223.9,117,222.2,117,223.1,115.8z"/>
	<path id="Path_145" class="st117" d="M224.5,111.8c0-0.2,0.1-0.3,0.1-0.5c0.6-0.5,1.2-0.8,2-0.8c0.7,0,1.2,0.2,1.3,1l-0.5,0.7
		c-0.4,0.4-1-0.5-1.4,0.1L224.5,111.8z"/>
	<path id="Path_146" class="st118" d="M224.5,115.3l-1,0c-0.1-0.5-0.2-1-0.3-1.6c0.7-0.2,0.8,0.6,1.3,0.7
		C224.4,114.7,224.5,115,224.5,115.3z"/>
	<path id="Path_147" class="st119" d="M204,103c0-0.2,0-0.3-0.1-0.5l0-0.1c1.9-1.3,2.1,0.4,2.7,1.5c0.1,0.5-0.1,1-0.6,1.2
		c-0.2,0.1-0.4,0.2-0.7,0.1c-0.7-0.2-1.3-0.7-1.6-1.3C203.7,103.7,203.8,103.3,204,103z"/>
	<path id="Path_148" class="st120" d="M204,103l0,1c-0.3,0.7-0.7,1-1.5,0.6l0-0.5L204,103z"/>
	<path id="Path_149" class="st121" d="M196.1,111.8c0.7-1.1-0.8-1.2-0.9-1.9c0.9-0.2,1.8-0.2,2,1c0.5,0.6,0.2,1.1-0.3,1.5
		c-0.2,0.1-0.5,0.1-0.7,0c-0.1-0.1-0.2-0.3-0.1-0.4C196,111.9,196,111.8,196.1,111.8z"/>
	<path id="Path_150" class="st122" d="M199.7,107.9l1.4,0.6c0.1,0.2,0.2,0.4,0.2,0.6c-0.1,0.2-0.2,0.4-0.4,0.5
		c-0.3,0.1-0.7,0.1-1-0.1C198.6,109.2,199.4,108.5,199.7,107.9z"/>
	<path id="Path_151" class="st123" d="M196.6,112.3l0.5-1.4c0.9,0.2,1-1.2,1.9-1c0.2,0.2,0.4,0.6,0.3,0.9c-0.1,0.4-0.3,0.8-0.7,1.1
		C198,112.1,197.4,113,196.6,112.3z"/>
	<path id="Path_152" class="st124" d="M199,110.9l0.1-0.9c0.3,0,0.7,0,0.9-0.4l1.1-0.1c0.3,0.3,0.4,0.8,0.3,1.2
		c-0.5,0.7-1.3,0.6-1.9,0.9C199,111.5,198.8,111.3,199,110.9z"/>
	<path id="Path_153" class="st125" d="M202.5,94.7c0-0.4,0.2-0.8,0.6-1c1.1,0.3,1.6,1.2,2.3,2c0,0.1,0.1,0.1,0.1,0.2
		c0.1,0.5-0.1,1.1-0.4,1.5c-0.2,0.3-0.5,0.4-0.8,0.6c-0.7,0-1.6,0.5-1.8-0.7c0.4-0.1,0.7-0.3,0.7-0.8c0-0.1-0.4-0.1-0.6-0.2
		l-0.1-0.1C202.4,95.7,202.7,95.2,202.5,94.7z"/>
	<path id="Path_154" class="st126" d="M202.5,97.3c0.5,0.9,1.5-0.4,1.9,0.5c0.2,0.1,0.3,0.3,0.3,0.5c0,0.2-0.1,0.4-0.2,0.6
		c-0.3,0.3-0.6,0.5-1,0.6c-0.3,0.2-0.7,0.3-1.1,0.3c-0.1,0-0.3,0-0.4,0.1l-1.1-0.1C202.2,98.8,202.2,98.8,202.5,97.3z"/>
	<path id="Path_155" class="st127" d="M227.9,111.5l-1.4-0.6c-0.6-0.3-0.9-1.1-0.7-1.7l0.2-0.2l0.9,0.5c0.8,0.2,1.5,0.6,2.1,1.1
		c0,0.3,0,0.7,0,1L227.9,111.5z"/>
	<path id="Path_156" class="st128" d="M227.4,107.9c0.1-0.9,0.7-1,1.5-0.9c0.5,0.5,1.1,1,0.5,1.8
		C228.4,109.2,227.9,108.5,227.4,107.9z"/>
	<path id="Path_157" class="st129" d="M224.5,107.5l1.1-0.5c0.1,0.6,0.3,1.3,0.4,1.9l-0.1,0c-0.2,0.3-0.7,0.3-0.9,0.1c0,0,0,0,0,0
		C224.4,108.6,224.5,108,224.5,107.5z"/>
	<path id="Path_158" class="st130" d="M229.4,108.9l-0.5-1.8l1.4-0.1c0.1,0.3,0.1,0.7,0.2,1C230.3,108.5,230.1,109,229.4,108.9z"/>
	<path id="Path_159" class="st131" d="M229,110.5c-0.8-0.3-1.6-0.4-2.1-1.1c1.2,0,2.5,0,3,1.4L229,110.5z"/>
	<path id="Path_160" class="st132" d="M207.4,137.3l-0.9,0.5c-0.4-0.3-0.7-0.7-0.8-1.2c-1.2-0.2-0.3,1.2-1.1,1.4
		c-0.9,1-2-0.3-2.9,0.1c-0.6-0.2-0.7-0.9-1.1-1.2c-0.7-0.5-0.7-0.9,0-1.4c0.1-0.1,0.3-0.3,0.5-0.3c0.7-0.1,1.1,0.3,1.5,0.6
		c0.2,0.1,0.5,0,0.6-0.3c0.3-0.6,0.2-1.4,0.5-2c0.2-0.3,0.4-0.5,0.7-0.6c0.2,0,0.4,0,0.6,0.1c0.7,0.4,0.7,1.3,1.4,1.8
		c0.4,0.1,0.8,0.3,1.2,0.6C208.3,136,208.1,136.7,207.4,137.3z"/>
	<path id="Path_161" class="st133" d="M201,135.3c-0.2,0-0.3,0.1-0.5,0.1c0-0.1,0-0.3,0-0.4c-0.3-0.3-0.3-0.7-0.1-1l1.5-1
		c0.2-0.2,0.5-0.1,0.7,0.1c0,0,0,0,0,0C203.5,134.8,202.4,135.1,201,135.3z"/>
	<path id="Path_162" class="st134" d="M200.6,136.8c0.5,0,0.9,0.4,1,0.9c0,0,0,0.1,0,0.1c0.2,0.1,0.2,0.3,0.2,0.5
		c-0.2,0.4-0.5,0.8-0.8,1.2c-0.1,0.1-0.3,0.3-0.5,0.3l-0.9-0.1c0-0.3,0-0.7,0-1C200.5,138.4,200.6,137.6,200.6,136.8z"/>
	<path id="Path_163" class="st135" d="M200.5,133.9l0.1,1c-1-0.2-1-0.9-1-1.7L200.5,133.9z"/>
	<path id="Path_164" class="st136" d="M206.4,104.2c-0.9-0.4-0.9-2.2-2.5-1.7c0-0.3,0-0.6,0-0.8c0.2-0.7,0.9-1.1,1.1-1.8
		c0.1-0.2,0.3-0.3,0.5-0.4c0.7-0.1,1.4,0.1,2,0.3c0.4,0.2,0.7,0.6,0.9,1.1c0.3,0.5,0.3,1.2,0.1,1.7
		C208,103.3,207.6,104.2,206.4,104.2z"/>
	<path id="Path_165" class="st55" d="M205.4,100.1c0.1,1.1-0.8,1.2-1.4,1.6c-0.5-0.7-1.3-1.1-1.4-1.9c0.1-0.4,0.6-0.7,1-0.6
		C204.2,99.3,204.8,99.6,205.4,100.1z"/>
	<path id="Path_166" class="st137" d="M225.9,103.7c0,0.3,0,0.6,0,0.9c-1,0.3-1.1-0.6-1.5-1.1c0-0.4,0.1-0.7,0.5-0.9l0.5,0.5
		L225.9,103.7z"/>
	<path id="Path_167" class="st138" d="M201.6,131.5l-0.6-0.6c-0.1-0.2-0.1-0.4,0-0.6c0.3-0.3,0.7-0.5,1.1-0.6c0.2,0,0.4,0,0.7,0.1
		c0.5,0.3,1,0.6,0.9,1.3c-0.1,0.3-0.4,0.6-0.7,0.7C202.5,132,202,131.8,201.6,131.5z"/>
	<path id="Path_168" class="st139" d="M201.6,131.5l1.4,0c0.3,0.4,0.1,0.7,0,1c-0.1,0.2-0.2,0.3-0.4,0.4c-0.2,0-0.3,0-0.5,0
		L201.6,131.5z"/>
	<path id="Path_169" class="st140" d="M200.9,130.5c0,0.1,0,0.3,0.1,0.4c-0.8,0.8-1.5,1.1-1.5-0.5l0,0
		C200,130.1,200.5,130.2,200.9,130.5z"/>
	<path id="Path_170" class="st141" d="M228.3,132l-1-1c0.4-0.2,0.6-0.6,0.5-1l1,0.5c1-0.7,1.9-0.2,2.9,0l-1.9,1.4L228.3,132z"/>
	<path id="Path_171" class="st142" d="M205.4,95.7c-1-0.3-1.8-1-2.3-2c-0.1-0.1-0.1-0.3-0.2-0.4h1.2l1,0.1c-0.1,0.3,0,0.7,0.3,0.9
		C205.4,94.8,205.4,95.3,205.4,95.7z"/>
	<path id="Path_172" class="st143" d="M202.5,94.7c0.7,0.5,0.9,1,0,1.5C201.7,95.7,201.8,95.2,202.5,94.7z"/>
	<path id="Path_173" class="st144" d="M197.1,122.6c-0.3-0.6-1.1-0.9-1.7-0.6c-0.1,0-0.1,0.1-0.2,0.1c-0.4-0.1-0.7-0.5-0.7-1
		c0.1-0.4,0.4-0.8,0.8-1c0.2-0.1,0.4-0.2,0.6-0.2c0.7,0,1.5,0.2,2.2,0.2c0.2,0,0.4,0.1,0.6,0.2c0.4,0.2,0.6,0.6,0.6,1.1
		c-0.1,0.2-0.2,0.4-0.3,0.6c-0.3,0.3-0.6,0.6-1,0.8C197.7,123,197.3,122.9,197.1,122.6z"/>
	<path id="Path_174" class="st145" d="M197.1,122.6h1c0.3,0.1,0.6,0.2,0.8,0.4c0.2,0.3,0.5,0.6,0.2,1.1l-0.4,0.4
		c-0.4-0.4-0.5-1-1.4-0.9C196.2,123.7,196.5,123.1,197.1,122.6z"/>
	<path id="Path_175" class="st146" d="M194.7,121.3l0.5,0.9c0,0.1,0,0.2,0,0.4l-1.4,0.2l-0.6-1.6c0.4-0.4,1-0.4,1.4,0
		C194.6,121.2,194.7,121.2,194.7,121.3z"/>
	<path id="Path_176" class="st147" d="M210.3,101.6c-0.1,0-0.2,0.1-0.4,0.1c-0.2,0.2-0.4,0.2-0.6,0.1c-0.3-0.2-0.5-0.4-0.6-0.8
		c0-0.6,0.2-1.1,0.7-1.5c0.7-0.2,1.1,0.2,1.5,0.6l0,0L210.3,101.6z"/>
	<path id="Path_177" class="st19" d="M200.9,130.5l-1.4-0.1c-0.1-0.7,1.8,0,0.9-1.3c0.1-0.2,0.3-0.4,0.6-0.5c0.9,0,1.6,0.2,1,1.3
		C201.8,130.4,201.4,130.5,200.9,130.5z"/>
	<path id="Path_178" class="st19" d="M200.4,129.1c-1.1,0-1.4-0.6-1.4-1.6c0.1-0.2,0.4-0.3,0.6-0.2c0.4,0.2,0.8,0.5,1,0.9
		c0.1,0.2,0.1,0.4,0,0.6C200.6,129,200.5,129.1,200.4,129.1z"/>
	<path id="Path_179" class="st148" d="M199.6,127.6l-0.6,0l-0.5-0.7l1.1-0.7C200,126.6,200.8,127.1,199.6,127.6z"/>
	<path id="Path_180" class="st149" d="M224.5,103.5c0.5,0.3,0.7,1.1,1.5,1.1c0.8,0.5,0.3,1-0.1,1.5l-0.8-0.5l-0.6-0.5
		C224.5,104.5,224.5,104,224.5,103.5z"/>
	<path id="Path_181" class="st150" d="M202.5,104.6l1.5-0.6c0.8,0,1,0.7,1.4,1c0.5,1.4-0.5,1.3-1.3,1.5c-0.2,0-0.5-0.1-0.7-0.1
		c-0.6-0.2-0.6-0.8-0.8-1.3L202.5,104.6z"/>
	<path id="Path_182" class="st151" d="M202.6,105.2c0.9-0.2,0.7,0.3,0.5,0.8c-0.1,0.3-0.3,0.6-0.6,0.8c-0.2,0.1-0.4,0.1-0.7,0.1
		c-0.5-0.1-0.9-0.2-0.8-0.8C200.8,104.6,202,105.5,202.6,105.2z"/>
	<path id="Path_183" class="st152" d="M201,106.1l1,0.6c0.5,0.6,0.7,1.1-0.4,1.3c-0.5-0.6-2.2-0.5-1-1.9L201,106.1z"/>
	<path id="Path_184" class="st153" d="M207.4,137.3c0-0.6,0.5-1.2,0-1.8c0-0.3,0.3-0.6,0.6-0.5c0,0,0,0,0,0c1.1,0,2.4-0.4,1.8,1.5
		l-1.5,0.9L207.4,137.3z"/>
	<path id="Path_185" class="st154" d="M208,134.9l-0.6,0.5l-1-0.5c-0.1-0.1-0.2-0.2-0.1-0.3c0.1-0.1,0.1-0.1,0.2-0.1l1.5-0.1
		L208,134.9z"/>
	<path id="Path_186" class="st155" d="M201.1,125.6c0-0.2,0-0.3-0.1-0.4c1-0.6-0.2-1-0.2-1.5c0-0.6,0.4-1.1,0.9-1.3
		c0.4-0.3,0.9-0.3,1.3-0.2c0.2,0.2,0.4,0.5,0.5,0.9c0.1,0.4,0.2,0.8,0.3,1.3c0.1,0.4,0.1,0.9,0,1.3c-0.1,0.4-0.4,0.8-0.7,1.1
		c-0.7,0.3-1.6,0-2-0.7C201.1,125.8,201.1,125.7,201.1,125.6z"/>
	<path id="Path_187" class="st156" d="M199.6,127.6c0.5-0.5-0.2-1,0-1.5c0.4-0.4,0.9-0.6,1.4-0.5l0,0c0.6,0.8,0.1,1.6,0.2,2.4
		c-0.1,0.3-0.2,0.6-0.6,0.6C200.2,128.4,199.8,128.1,199.6,127.6z"/>
	<path id="Path_188" class="st157" d="M201,123.7c1,0.5,0.5,1-0.1,1.5c-0.7,0-0.9-0.5-0.9-1.1c-0.1-0.4,0.1-0.6,0.4-0.7
		C200.7,123.4,200.9,123.5,201,123.7z"/>
	<path id="Path_189" class="st158" d="M200.6,123.6l-0.5,0.5l-1,0l-0.5-1c0.2-0.4,0.7-0.7,1.1-0.7c0.2,0,0.5,0.1,0.6,0.2
		C200.6,122.9,200.7,123.3,200.6,123.6z"/>
	<path id="Path_190" class="st159" d="M187.8,115.8l-1.5-0.1l0.9-1.9l0.5-0.1l0.6,1.1C188,115,187.8,115.4,187.8,115.8z"/>
	<path id="Path_191" class="st160" d="M205.9,136.3l0.5,1.4l-1.4,0.4l-0.1,0.1C204.8,137.4,203.9,136.2,205.9,136.3z"/>
	<path id="Path_192" class="st161" d="M199,110.9l0.5,0.5c0.3,0.1,0.6,0.3,0.8,0.6c0.5,0.9-0.2,2.2,0.9,2.9c0.2,0.3,0.3,0.6,0.3,1
		c0,0.4-0.1,0.7-0.4,1c-0.4,0.3-0.9,0.4-1.3,0.2c-0.9-0.6-1.8-1-2.8-1.3c-0.3-0.3-0.4-0.7-0.6-1.2c-0.3-1-2-1.3-1.2-2.7l0.9-0.1
		l0.1,0.6c0.9,0.6,1.6,0,2.4-0.5L199,110.9z"/>
	<path id="Path_193" class="st162" d="M195.2,111.9c-0.1,1.4,1.7,1.3,1.9,2.5c-1.9,0.5-0.5,1.5-0.3,2.3c0,1.1-0.3,1.9-1.7,1.5
		c-0.2-0.1-0.4-0.2-0.6-0.4c0-1.2-0.9-2-1.5-2.9c0-0.7,0.3-1.4,0.6-2l0.5-1c0.2-0.2,0.3-0.2,0.5,0
		C194.9,111.9,195,111.9,195.2,111.9z"/>
	<path id="Path_194" class="st163" d="M194.7,111.9l-0.5,0c-0.6-0.1-1-0.3-1-1C194.1,110.7,194.4,111.2,194.7,111.9z"/>
	<path id="Path_195" class="st164" d="M201.6,108c0.6-0.3,0.4-0.8,0.4-1.3c0.1,0,0.3,0,0.5,0c0.3,0.1,0.5,0.5,0.9,0.2
		c0.2,0,0.4,0.1,0.5,0.2c0.4,0.3,0.5,0.9,0.4,1.4c-0.1,0.9,1,0.8,1.3,1.4c0.1,0.2,0.1,0.4,0,0.6c-0.2,0.2-0.4,0.4-0.7,0.6
		c-0.6,0.3-0.5,1-0.8,1.5c-0.2,0.1-0.3,0.2-0.5,0.3c-0.5,0.2-1,0.2-1.6,0.3c-0.3-0.1-0.6-0.3-0.6-0.7c1.3-0.8,0.1-0.7-0.3-0.9
		c-0.1-0.2-0.1-0.4,0-0.6c0-0.5,0-1,0-1.5l0,0c0.3-0.3,0.6-0.5,0.5-1C201.5,108.3,201.5,108.1,201.6,108z"/>
	<path id="Path_196" class="st165" d="M201.5,108.5c0.4,0.1,1,0,0.8,0.6c-0.2,0.5-0.8,0.4-1.2,0.4l0.1-0.9
		C201.2,108.5,201.4,108.5,201.5,108.5z"/>
	<path id="Path_197" class="st166" d="M190.8,114.8l0-0.9l0.8-1.5l1.4,0.4c1.1,1.2-0.5,1.6-0.6,2.5
		C191.7,115.7,191.2,115.3,190.8,114.8z"/>
	<path id="Path_198" class="st167" d="M192.4,115.3c-0.2-0.9,0.9-1.5,0.6-2.4l0.7,0c0.8,0.8,0.1,1.4-0.4,1.9
		c0.1,0.4-0.1,0.6-0.4,0.7C192.7,115.5,192.5,115.4,192.4,115.3z"/>
	<path id="Path_199" class="st168" d="M194.7,121.3l-1.5-0.1H193h-0.2c-0.8-0.4-0.4-0.9,0-1.3c0.9-0.5,2.1-0.4,2.8,0.4
		C195.5,120.7,195.1,121.1,194.7,121.3z"/>
	<path id="Path_200" class="st169" d="M201.4,138.5c0-0.2,0.1-0.4,0.1-0.7c0.9-0.4,1.9,0.5,2.8-0.1c0.3,0.1,0.4,0.3,0.2,0.6
		c-0.1,0.7,0.2,1.5-0.5,2c-0.3,0.1-0.6,0-0.8-0.2c-0.4,0.1-0.5,0.9-1.1,0.7c-0.6,0-1.2-0.3-1.5-0.9l0.1-0.1
		C200.9,139.3,201.2,138.9,201.4,138.5z"/>
	<path id="Path_201" class="st170" d="M202,140.7c0.8-0.2-0.1-1.5,1-1.5c0.4,0.7,0.5,1.5,0.3,2.2c-0.3,0.5-0.6,0.9-1.2,0.6
		c0-0.1-0.1-0.2-0.1-0.3C202,141.4,202,141.1,202,140.7z"/>
	<path id="Path_202" class="st171" d="M204.5,138.3c-0.1-0.2-0.1-0.4-0.2-0.6c0.1-0.8,0.2-1.6,0.2-2.4c0.7-0.2,1,0.4,1.5,0.6
		c0,0,0.1,0.2,0,0.2s-0.1,0.1-0.2,0.2c-1.6,0-0.7,1.3-0.9,1.9C204.8,138.3,204.7,138.3,204.5,138.3z"/>
	<path id="Path_203" class="st172" d="M203,141.8c0-0.9,0-1.7,0-2.6l0.9,1l0.4,1.1c-0.4,0.1-0.8,0.5-0.8,1
		C203.1,142.4,203,142.2,203,141.8z"/>
	<path id="Path_204" class="st59" d="M205.9,95.8c0.4-0.3,1-0.3,1.5,0l0.1,0.1c0.2,0.6,1.1,0.6,1.1,1.4c0,0.2-0.1,0.4-0.2,0.6
		c-1.1-0.5-0.6,1.2-1.4,1c-0.3-0.1-0.6-0.3-0.8-0.6c-0.1-0.3-0.2-0.6-0.2-0.9C206.1,96.8,205.7,96.3,205.9,95.8z"/>
	<path id="Path_205" class="st173" d="M205.9,95.8c0.1,0.5,1.5,0.5,0.5,1.4c-0.5,0.1-1,0.4-1.5,0.1c-0.1-0.6,0.2-0.9,0.6-1.3
		C205.6,95.9,205.8,95.8,205.9,95.8z"/>
	<path id="Path_206" class="st174" d="M203,141.8l0.6,0.5c-0.2,0.4-0.4,0.9-0.6,1.3c-1.6,0.2-1.5-0.5-0.9-1.6L203,141.8z"/>
	<path id="Path_207" class="st175" d="M208.4,97.6c0-0.1,0-0.2,0-0.3c0.1-0.3,0.2-0.4,0.5-0.2l1,1.2c0.2,0.5-0.1,1-0.5,1.2l-0.5,1.6
		c-0.2,0.3-0.7,0.3-1,0.1c0,0,0,0,0,0c-0.1-0.4-0.1-0.8-0.6-1c-0.2-0.2-0.2-0.4-0.2-0.6C207.5,98.9,207.9,98.2,208.4,97.6z"/>
	<path id="Path_208" class="st176" d="M209.4,99.5l0.5-1.2l1-0.1c-0.6,0.7,0,1.3,0,2C210.2,100.3,209.8,99.8,209.4,99.5z"/>
	<path id="Path_209" class="st177" d="M208.9,97.1l-0.5,0.2c-0.2-0.6-1-0.7-0.9-1.4c0.5,0.2,0.9,0.5,1.4,0.7
		C208.9,96.8,208.9,97,208.9,97.1z"/>
	<path id="Path_210" class="st178" d="M215.7,127.6c-0.9-0.8-1.9,0-2.9-0.1l0,0.1c-0.4-0.3-0.5-0.9-0.2-1.4c0.1-0.2,0.3-0.2,0.5-0.1
		c0.1,0,0.1,0.1,0.1,0.1c0.4,0.5,0.8,0.3,1.2,0.1C215.7,125.9,215.9,126.5,215.7,127.6z"/>
	<path id="Path_211" class="st179" d="M213.2,126.2l-0.6-0.1c-0.7,0.6-1.3,0.1-1.9-0.1c-0.3-0.2-0.5-0.5-0.5-0.8
		c0.4-0.6,0.9-1,1.6-1.2c0.8-0.2,1.3,0.2,1.6,0.9c0,0.1,0,0.2,0.1,0.3c0,0.1-0.1,0.2-0.1,0.3L213.2,126.2z"/>
	<path id="Path_212" class="st180" d="M217.7,121.7c-0.4-0.3-1-0.3-1.4,0c-0.4,0.4-1,0.5-1.4,0.2c-0.2-0.2-0.3-0.4-0.3-0.7
		c0.1-0.8,0.9-1.4,1.7-1.3C217.2,120.1,218.2,120.3,217.7,121.7z"/>
	<path id="Path_213" class="st181" d="M217.7,121.7c0-1-1-1.1-1.5-1.5c-0.4-0.3-0.8-0.5-0.4-1.1c0.4-0.2,0.8-0.3,1.3-0.1
		c0.5,0.3,1.1,0.6,1.6,0.9c0.1,0.2,0.2,0.3,0.3,0.5c0,0.4-0.2,0.8-0.5,1.1c-0.1,0.1-0.2,0.1-0.2,0.2L217.7,121.7z"/>
	<path id="Path_214" class="st182" d="M214.7,122.7l-0.4,0.4c-0.7,0.5,0.5,1.8-0.8,2l-0.2,0c-0.3-0.6-0.5-1.2-0.6-1.9
		c0-0.6,0.2-1.2,0.6-1.6c0.3-0.2,0.7-0.2,1-0.1C214.5,121.8,215,122.1,214.7,122.7z"/>
	<path id="Path_215" class="st183" d="M213.4,125.1c0.6-0.5,0-1.5,0.8-2c0.1,0.9,1.5,2.4-0.9,2.4
		C213.3,125.4,213.3,125.2,213.4,125.1z"/>
	<path id="Path_216" class="st184" d="M214.7,122.7l-0.4-0.9c0-0.1,0.1-0.2,0.3-0.2c0,0,0.1,0,0.1,0l1.6,0.1
		C216.1,122.7,215.7,123.1,214.7,122.7z"/>
	<path id="Path_217" class="st185" d="M219,123.7l-1.4-0.9c0.4-0.2,0.4-0.7,0.5-1.1v-0.2c0.2-0.1,0.4,0,0.6,0.1
		c0.4,0.4,0.6,0.9,0.6,1.5C219.4,123.3,219.2,123.5,219,123.7z"/>
	<path id="Path_218" class="st186" d="M216.3,129c0-0.3,0-0.6,0-0.9l0.9-0.5c-0.1,0.5-0.1,1-0.2,1.4L216.3,129z"/>
	<path id="Path_219" class="st187" d="M223.6,127.6c-0.3,0.5-0.9,1-0.1,1.5l0,0.3c-1,0-1.4-0.9-2-1.4c0-0.2,0-0.4,0-0.6
		c-0.1-0.9,0.1-1.6,1-1.9c0.1,0,0.2,0,0.4-0.1C223.3,126.1,221.9,127.3,223.6,127.6z"/>
	<path id="Path_220" class="st188" d="M226.5,131.4c0,0.2,0.1,0.3,0.1,0.5c-0.7-0.3-1.4-0.6-2.2-0.1c-0.8-0.5-1.5-1.1,0-1.5l0.9,0.2
		C226,130.6,226.6,130.6,226.5,131.4z"/>
	<path id="Path_221" class="st189" d="M223.5,129.4c0-0.1,0-0.2,0-0.3c0.6-1.2,1.2,0.2,1.8,0c-0.1,0.5-0.5,0.7-0.8,0.9L223.5,129.4z
		"/>
	<path id="Path_222" class="st190" d="M222.6,125.5l-1,1.9c-0.8-0.1-0.3-1.5-1.4-1.4c-0.4-0.3-1-0.5-1.1-1.1c0-0.1,0-0.2,0-0.4
		c0.3-0.3,0.8-0.5,1.2-0.4c0.7,0.2,1.5-0.1,2.2,0.4C222.6,124.9,222.6,125.2,222.6,125.5z"/>
	<path id="Path_223" class="st191" d="M220.6,124.6h-1.5c0-0.3-0.1-0.6-0.1-0.9c0-0.2,0-0.3,0-0.5c0.4-0.3,0.9-0.6,1.4-0.7
		c0.2,0,0.4,0,0.6,0.2c0,0.5,0.4,0.9,0.9,1C221.7,124.2,221.2,124.6,220.6,124.6z"/>
	<path id="Path_224" class="st192" d="M219.1,125c0.5,0.1,1,0.5,1.1,1.1l-0.7,0.1c-0.4-0.2-1-0.1-1.1-0.7
		C218.4,125.1,218.8,125,219.1,125z"/>
	<path id="Path_225" class="st193" d="M213.3,107.5c0.7,0,1.3-0.1,1.9-0.5c0.5,0.2,0.8,0.6,0.9,1.1c-0.2,0.5-0.5,0.9-1,1.2
		c-0.3,0.1-0.6,0.1-0.9,0c-0.6-0.2-0.7-0.7-1-1.2C213.1,107.9,213.2,107.7,213.3,107.5z"/>
	<path id="Path_226" class="st194" d="M215.2,109c0.2-0.4,0.5-0.8,1-0.9c0.5,0.5,1.2,0.8,2,0.9c0,0.2,0,0.3,0,0.5
		c-0.4,0.5-1.5-0.2-1.5,0.9c-0.2,0.1-0.4,0.2-0.6,0.1C215.6,110.1,214.9,109.8,215.2,109z"/>
	<path id="Path_227" class="st195" d="M218.6,111.8l0.5,0.1c0.5,0.1,1,0.4,1.2,0.9c0.1,0.2,0.1,0.4,0.2,0.6
		c-0.1,0.6-0.1,1.2-0.1,1.8c0,0.2,0,0.4,0,0.6c-0.1,0.2-0.2,0.4-0.3,0.5c-0.6,0.4-1.2,0.8-1.9,1.1c-0.2,0-0.4-0.1-0.6-0.2
		c-0.1-0.2-0.2-0.4-0.3-0.6c-0.1-0.8,0.2-1.7-0.7-2.3c-0.4-0.4-0.6-0.9-0.6-1.5c0.1-0.3,0.3-0.6,0.6-0.7
		C217.3,112.4,217.9,111.7,218.6,111.8z"/>
	<path id="Path_228" class="st196" d="M216.7,112.4l-0.5,0.5c-0.5,0.3-0.8,0-1.1-0.3c-0.1-0.2-0.3-0.3-0.4-0.5
		c-0.2-0.6-0.9-1.1-0.3-1.8c0.4-0.3,0.9-0.3,1.3-0.2c0.2,0.1,0.4,0.2,0.6,0.4c0.1,0,0.3,0,0.4,0c0.4,0,0.9,0.1,1.1,0.6
		C217.8,111.8,217.1,112,216.7,112.4z"/>
	<path id="Path_229" class="st197" d="M220.2,113.3c0-0.1-0.1-0.3-0.1-0.4c0-0.4,0.2-0.8,0.5-1l1.1-1.1l0.5,1c0,0.8-0.8,1-1.1,1.5
		c-0.2,0.2-0.5,0.3-0.7,0.1C220.3,113.4,220.2,113.4,220.2,113.3z"/>
	<path id="Path_230" class="st198" d="M216.7,112.4c-0.2-0.9,0.7-1,1-1.4c0.6,0,0.9,0.3,0.9,0.9C218,112.3,217.5,112.9,216.7,112.4z
		"/>
	<path id="Path_231" class="st199" d="M220.6,111.9c0.1,0.4-0.1,0.8-0.5,1c-0.5-0.2-0.8-0.5-1-1
		C219.6,111.1,220.1,111.8,220.6,111.9z"/>
	<path id="Path_232" class="st200" d="M225,109l1,0c0.2,0.6,0.3,1.3,0.5,1.9c-0.6,0.4-1.2,0.6-1.9,0.5c0-0.1,0-0.3,0-0.4
		C224.8,110.4,225,109.7,225,109z"/>
	<path id="Path_233" class="st201" d="M220.6,124.6c0.4-0.3,0.9-0.6,1.3-0.9l0.2,0l0.4,0.8C221.9,124.1,221.3,125.8,220.6,124.6z"/>
	<path id="Path_234" class="st202" d="M223.1,115.8c-0.2,0.9,1.1,1.1,0.9,1.9l-1-0.4l-0.9-0.1c-0.5-0.1-0.9-0.5-0.9-1
		c0-0.2,0-0.5,0-0.7c0.3-0.6,0.6-1.2,1.3-0.5C222.6,115.2,222.6,115.7,223.1,115.8z"/>
	<path id="Path_235" class="st203" d="M221.6,116.3c0.2,0.3,0.4,0.6,0.5,0.9l-0.5,0.5l-0.1,0.6c-1.5-0.3-1.4-1.1-0.6-2.1
		C221.1,116.1,221.4,116.1,221.6,116.3z"/>
	<path id="Path_236" class="st204" d="M218.7,120.7c0-0.1-0.1-0.3-0.1-0.4c0-0.3,0.2-0.6,0.4-0.8c0.4-0.4,0.8-0.7,1.3-1
		c0.3-0.1,0.7,0,0.9,0.3c0,0.4-0.1,0.7,0.3,1l-0.9,0.9c-0.2,0.3-0.6,0.4-1,0.4C219.2,121.1,218.9,121,218.7,120.7z"/>
	<path id="Path_237" class="st205" d="M221.2,118.8l-1.1,0c-0.7-0.8-1.2-1.5-0.1-2.4l0-0.6c0.6-0.2,0.9,0.1,1,0.6
		c-0.7,0.8-0.4,1.4,0.3,1.9L221.2,118.8z"/>
	<path id="Path_238" class="st206" d="M219.6,120.7h1c0.4,0.2,0.4,0.6,0.5,1c0,0.3,0,0.6-0.1,1l-0.6,0.1c-0.6,0.3-1,0-1.2-0.6
		C219.1,121.6,219.2,121.1,219.6,120.7z"/>
	<path id="Path_239" class="st207" d="M226.5,131.4l-1.1-0.9c0.8-1,1.1,0,1.6,0.4L226.5,131.4z"/>
	<path id="Path_240" class="st208" d="M192.7,115.4l0.6-0.5c1.2,0.7,1.9,1.6,1.5,3c-0.1,0.6-0.4,0.7-1,0.5l-0.1-0.6
		c-0.1-0.5-0.5-0.9-1-0.9l0,0C192.3,116.4,192.3,115.8,192.7,115.4z"/>
	<path id="Path_241" class="st209" d="M192.7,115.4c0,0.5,0,0.9,0,1.4l-1.9-0.5c-0.9-0.5-0.2-1-0.1-1.5l1.6,0.5
		C192.5,115.3,192.6,115.3,192.7,115.4z"/>
	<path id="Path_242" class="st210" d="M195.6,120.3c-1,0-1.9-0.1-2.8-0.4l-0.1-1l1.1-0.1c0.6-0.1,1.3,0,1.8,0.3
		c0.2,0.1,0.3,0.3,0.3,0.5c0,0.2-0.1,0.4-0.2,0.6L195.6,120.3z"/>
	<path id="Path_243" class="st211" d="M195.6,119.2c-0.6,0.2-1.3,0-1.8-0.4c0-0.1-0.1-0.2-0.1-0.4l1-0.5c0.1,0,0.2-0.1,0.3-0.1
		C195.5,118.2,195.9,118.6,195.6,119.2z"/>
	<path id="Path_244" class="st209" d="M192.7,116.8c0.4-0.1,0.9-0.7,1.2-0.1c0.1,0.2-0.2,0.7-0.3,1.1
		C193.3,117.6,192.9,117.3,192.7,116.8z"/>
	<path id="Path_245" class="st212" d="M209.4,101.6c0.2,0,0.3,0,0.5,0c-0.2,0.6,0,1.2,0.4,1.7l0,0c-0.3,1.1-1.7,1.1-2.1,2.1
		c-0.1,0.1-0.3,0.3-0.5,0.3c-0.5,0-1.1-0.2-1.5-0.5c-0.1-0.1-0.1-0.2-0.2-0.3l0.5-0.8c0.9-0.3,0.9-1.5,1.9-1.7
		C208.7,102.2,209,101.8,209.4,101.6z"/>
	<path id="Path_246" class="st213" d="M207.8,105.5c-0.1-1.8,1.6-1.5,2.5-2.1c-0.1,1.4,1.8,1,2,2.2l0.5,0.9l-0.1,0.2
		c-0.2,0.1-0.4,0.3-0.6,0.4C210.6,106.8,209.1,106.3,207.8,105.5z"/>
	<path id="Path_247" class="st214" d="M212.5,106.6l0.2,0.1l0.6,0.8c-0.1,0.1-0.1,0.3-0.1,0.5c-0.1,0.1-0.2,0.2-0.3,0.2
		c-0.4,0.2-1,0.1-1.3-0.2C211.6,107.4,211.9,106.8,212.5,106.6z"/>
	<path id="Path_248" class="st215" d="M207.8,129.6l0.2,1.3c-0.5,0-0.9-0.6-1.5-0.4c-0.5,0.1-1.1-0.1-1.4-0.6
		c-0.1-0.2-0.3-0.3-0.4-0.5c-0.1-0.3-0.2-0.6-0.3-0.9c-0.1-0.3-0.1-0.7,0-1c0.1-0.2,0.3-0.3,0.5-0.4c0.7-0.2,1.4-0.2,2.1,0
		c0.3,0.1,0.6,0.4,0.7,0.7C207.5,128.5,207.2,129.1,207.8,129.6z"/>
	<path id="Path_249" class="st216" d="M205,129.5l1.4,1.1c-0.4,0.8-1.3,0.9-2.1,0.9c-0.2,0.5-0.2,1.2-0.9,1.3
		c-0.3,0-0.7-0.1-0.9-0.3l0.4-0.9l0.5-0.5C203.7,130.3,204.3,129.7,205,129.5z"/>
	<path id="Path_250" class="st217" d="M205,132.4c1.6-0.1,1.9,0.2,1.5,1.5c-0.9,0.3-1.1-0.6-1.5-1l0,0c-0.1-0.1-0.2-0.2-0.2-0.3
		C204.9,132.5,204.9,132.4,205,132.4z"/>
	<path id="Path_251" class="st218" d="M204.9,132.9l1.5,1c0,0.2,0,0.3,0,0.5c0,0.2-0.1,0.3-0.1,0.5
		C205.7,134.4,204.9,133.9,204.9,132.9z"/>
	<path id="Path_252" class="st219" d="M204.9,132.4c0,0.2,0,0.3,0,0.5l-1,0.5c-0.4-0.2-0.7-0.4-0.5-1l0.9-1
		C204.5,131.9,204.5,132.3,204.9,132.4z"/>
	<path id="Path_253" class="st220" d="M208.8,129.2l-0.9-0.1c-0.2-0.2-0.3-0.5-0.2-0.8c0.3-0.6-0.3-1.2,0.1-1.7
		c0.5-0.4,1.1-0.3,1.6-0.6c0.4,0,0.8,0.1,1.2,0.3c0.4,0.3,1,0.6,0.6,1.3C210,127.5,209.5,128.5,208.8,129.2z"/>
	<path id="Path_254" class="st221" d="M211.2,127.5c0-0.6-0.5-0.7-0.8-0.9c-0.3-0.6,0.1-0.8,0.5-0.9l1.8,0.5c0,0.5,0.1,1,0.1,1.5
		C212.3,127.6,211.7,128.6,211.2,127.5z"/>
	<path id="Path_255" class="st222" d="M207.9,128.1l0,1l-0.1,0.6c-0.5-0.2-1.5,0.3-1.7-0.5c-0.2-0.9,1.1-0.4,1.3-1.1
		C207.5,127.9,207.7,127.9,207.9,128.1C207.9,128,207.9,128,207.9,128.1z"/>
	<path id="Path_256" class="st199" d="M222.5,114.9c-0.7-0.1-0.9,0.4-0.9,0.9c-0.6,0.3-0.9-0.4-1.5-0.5c-1-0.7,0.2-1.3,0.1-2l0.9,0
		C221.1,114.2,222.7,113.7,222.5,114.9z"/>
	<path id="Path_257" class="st223" d="M203.4,106.1c0.7-0.1,1.8,0.4,1.9-1l0.6,0l0,0.1c0.4,0.4,0.6,0.9,0.7,1.4c0,0.2,0,0.4-0.1,0.6
		c-0.2,0.3-0.5,0.5-0.8,0.5c-0.7-0.1-1.5-0.3-2.2-0.5l-0.1-0.2C203.2,106.8,203.2,106.4,203.4,106.1
		C203.4,106.1,203.4,106.1,203.4,106.1z"/>
	<path id="Path_258" class="st7" d="M198.6,112c-0.5,1.6-1.4,1.3-2.4,0.5c0.1,0,0.3-0.1,0.4-0.2C197.3,112.6,197.8,111.2,198.6,112z
		"/>
	<path id="Path_259" class="st224" d="M201,110.9c0,0.1,0,0.2-0.1,0.4c-0.1,0.3-0.3,0.5-0.6,0.6c-0.1,0-0.2,0-0.3,0l-0.6-0.5
		C199.6,110,200.4,110.8,201,110.9z"/>
	<path id="Path_260" class="st225" d="M204.9,97.2c0.5,0,1-1,1.5-0.1c0,0.3,0,0.7,0,1c-0.6,1.5-1.3,0.3-1.9,0
		c-0.1-0.1-0.1-0.3-0.1-0.4L204.9,97.2z"/>
	<path id="Path_261" class="st226" d="M204.5,98.2c0.6-0.9,1.3,1.1,1.9,0l0.5,0.5c0.3,0.2,0.5,0.6,0.5,1c0,0.2,0,0.3,0,0.5l-2.1-0.4
		c-0.9,0.2-1.2-0.1-0.9-1L204.5,98.2z"/>
	<path id="Path_262" class="st227" d="M204.4,98.8c0.1,0.5,0.3,1,0.9,1c0,0.1,0.1,0.2,0.1,0.3c-0.7,0.3-1.4,0-1.7-0.7
		c0-0.1-0.1-0.2-0.1-0.3C203.7,98.9,204.1,98.7,204.4,98.8z"/>
	<path id="Path_263" class="st228" d="M203.4,132.4l0.5,1c0,0.8,0.3,1.8-0.4,2.5c-0.7-0.5-0.6,0.7-1.1,0.5c-0.4-0.4-0.6-1.2-1.4-1.1
		c1.1-0.4,1.8-1.1,1.5-2.4c0-0.2,0-0.3,0-0.5L203.4,132.4z"/>
	<path id="Path_264" class="st229" d="M202.4,136.4l0.8-1.3l0.3,0.8C203.4,136.6,203.1,136.9,202.4,136.4z"/>
	<path id="Path_265" class="st230" d="M201.4,138.5c0.1,0.7,0.1,1.3-0.9,1.2c-0.1-0.5,0.2-1.1,0.7-1.2
		C201.3,138.5,201.4,138.5,201.4,138.5z"/>
	<path id="Path_266" class="st231" d="M209.4,101.6c-0.1,0.6-0.3,1-1,0.9l-0.5-1.3l1-0.1L209.4,101.6z"/>
	<path id="Path_267" class="st232" d="M204.5,127.5l0.4,0.9c-0.4,0.6-1.1,0.9-1.6,1.4c-0.3,0.2-0.5,0.4-0.8,0.1c-0.1,0-0.3,0-0.4,0
		c0-1-0.6-1.1-1.4-1.1c0-0.1,0-0.2,0-0.3l0.4-0.6c0.2-1.2,1.2-1,2-1.1C203.7,126.8,204.2,127.1,204.5,127.5z"/>
	<path id="Path_268" class="st233" d="M202.5,130l0.5-0.5c0.6-0.5,1.3-1,2-0.1h0c0,1-0.9,1.1-1.5,1.6L202.5,130z"/>
	<path id="Path_269" class="st234" d="M198.6,120.7H198c-0.6-0.7-1.7-0.7-2-1.6c0.5-0.8,1.2-1.4,2.1-1.7c0.4,0.7,1.8,0.5,1.6,1.7
		C199.5,119.7,199.1,120.3,198.6,120.7z"/>
	<path id="Path_270" class="st132" d="M198.6,120.7c0.1-0.6-0.2-1.5,1-1.4c0.1,0.1,0.2,0.1,0.3,0.1c0.4,0.4,0.7,0.8,0.9,1.2
		c0.1,0.3,0.1,0.6,0,0.9c-0.1,0.2-0.3,0.3-0.5,0.4c-0.4,0.1-0.9,0-1.2-0.2L198.6,120.7z"/>
	<path id="Path_271" class="st235" d="M196.2,119.3c0.9,0.1,1.8,0.2,1.9,1.4c-0.8,0.1-1.6-0.1-2.3-0.6c0-0.2-0.1-0.3-0.1-0.5
		C195.8,119.5,196,119.4,196.2,119.3z"/>
	<path id="Path_272" class="st236" d="M200.1,122.7l-1.5,0.5l-0.4-0.5c-0.1-0.4,0.1-0.7,0.4-0.9
		C198.9,122.3,200.2,121.3,200.1,122.7z"/>
	<path id="Path_273" class="st237" d="M200.1,122.7l-1.5-1l0.6-0.1c0.4-0.3,1-0.3,1.4,0C200.8,122.2,200.9,122.7,200.1,122.7
		L200.1,122.7z"/>
	<path id="Path_274" class="st238" d="M203.4,106.1c0,0.3,0,0.6,0,0.9l-0.8,0.7c-0.1-0.4-0.2-0.7-0.3-1.1l0.7-0.7
		C203.2,106,203.3,106,203.4,106.1z"/>
	<path id="Path_275" class="st239" d="M203,127l-1.9,1c-1.3-0.8,0.2-1.6-0.1-2.4l1.9,1.1c0.1,0.1,0.2,0.1,0.1,0.2S203.1,127,203,127
		z"/>
	<path id="Path_276" class="st240" d="M203.4,125.6l0-1.5c-0.1-0.7,0.4-0.7,0.9-0.7c0.4,0.2,0.8,0.6,1,1.1c0.5,1.7-0.4,1.9-1.8,1.8
		C203.3,126.1,203.3,125.9,203.4,125.6C203.4,125.6,203.4,125.6,203.4,125.6z"/>
	<path id="Path_277" class="st241" d="M204.5,123.7c-0.4,0-0.9-0.1-1,0.5c-0.3-0.3-0.4-0.7-0.3-1.1c0.4-0.7,0-2,1.5-1.8
		C205.1,122.1,205.6,122.9,204.5,123.7z"/>
	<path id="Path_278" class="st242" d="M204.5,121.2l-1.4,1.8c-0.1-0.3-0.1-0.6-0.2-0.9c-0.1-0.2-0.1-0.4-0.1-0.6
		c0.2-0.7,0.6-1.2,1.2-1.5c0.3-0.1,0.7,0,1,0.2c0.1,0.3,0.1,0.7-0.2,0.9L204.5,121.2z"/>
	<path id="Path_279" class="st236" d="M200.1,122.6c0.3-0.2,0.5-0.6,0.5-1l0,0c0.3-0.3,0.6-0.3,1-0.2c0.4,0.3,0.7,0.6,0.5,1.2
		c-0.5,0.2-0.8,0.6-1,1.1c-0.1,0-0.3-0.1-0.4-0.1L200.1,122.6z"/>
	<path id="Path_280" class="st243" d="M203.4,125.6c0.1,0.1,0.1,0.2,0.1,0.4c0.3,0.7,1.4-0.1,1.5,0.9c0,0.4-0.4,0.5-0.6,0.7l0,0
		c-0.6,0.1-1-0.2-1.4-0.5c0-0.1,0-0.3-0.1-0.4C202.9,126.2,203.1,125.8,203.4,125.6z"/>
	<path id="Path_281" class="st244" d="M202,122.6l-0.5-1c-0.1-0.2,0-0.5,0.2-0.6c0,0,0,0,0,0c0.7-0.1,1.3-0.3,1.3,0.7
		c0,0.2-0.1,0.3-0.2,0.4L202,122.6z"/>
	<path id="Path_282" class="st245" d="M199.6,119.2c0-1-1.2-0.7-1.5-1.5c-0.3-0.4-1-0.5-1.2-1.1c-0.1-0.4,0-0.6,0.3-0.8
		c0.6-0.6,0.6-0.6,2.3,0.9c0.1,0.9,1.2,1,1.2,1.9C200.6,119.4,200.3,119.7,199.6,119.2L199.6,119.2z"/>
	<path id="Path_283" class="st246" d="M201.5,112.4l0.5,0.5c0.6,0.9-0.2,1.3-0.7,1.8c-0.1,0-0.2,0.1-0.3,0.1c-2.5-0.3-0.2-2.1-1-2.9
		l0,0C200.7,111.6,201.1,112,201.5,112.4z"/>
	<path id="Path_284" class="st247" d="M197.3,115.9l-0.2,0.9c-0.1,0.2-0.3,0.2-0.5,0.1c0,0,0,0,0,0c-1.5-0.4-0.6-1.7-1.6-2.7l2,0.3
		C197.2,114.9,197.2,115.4,197.3,115.9z"/>
	<path id="Path_285" class="st248" d="M200.9,116.9l0.1-1c0.6-0.7,1.6-0.8,2.4-0.3c0.5,1.2-0.7,1.2-1.2,1.8c-0.3,0.2-0.7,0.2-1,0.1
		C201,117.3,200.9,117.1,200.9,116.9z"/>
	<path id="Path_286" class="st249" d="M200.9,116.9c0.1,0.1,0.1,0.2,0.1,0.4c0.3,0.6,0,0.9-0.5,1.1c-0.4-0.4-1.6-0.4-0.9-1.5
		L200.9,116.9z"/>
	<path id="Path_287" class="st250" d="M202.9,115.8l-1.8,0.1c0-0.4,0-0.7,0-1.1l0,0c0.5-0.5,1.4-0.6,2-0.2
		C203.2,115.1,203.3,115.5,202.9,115.8z"/>
	<path id="Path_288" class="st208" d="M196.6,116.8l0.5,0c0.5,0,1,0.4,1,0.9c0,0,0,0,0,0.1c-0.9,0.2-1.2,1.2-2,1.5l-0.5,0.4
		c0-0.2,0-0.3,0-0.5l-0.5-1.4C196.1,118.3,196.3,117.5,196.6,116.8z"/>
	<path id="Path_289" class="st251" d="M203.6,107.2c0.9-0.7,1.6-0.1,2.4,0.4c0.8-0.2,1,0.3,1.1,0.9c-0.3,0.6-0.9,1.1-1.5,1.2
		c-0.4-0.5-1.1-0.6-1.5-1.1C203.8,108,203.7,107.6,203.6,107.2z"/>
	<path id="Path_290" class="st252" d="M202.9,114.9l-1.8-0.1l1-2c0.3-0.6,0.9-0.5,1.5-0.5c0.4,0.8,0.4,1.8,0,2.6
		C203.3,115.1,203,115.1,202.9,114.9z"/>
	<path id="Path_291" class="st253" d="M205.5,109.4c0.5-0.3,0.7-1,1.4-1c0.2-0.1,0.4-0.2,0.7-0.1c0.5,0.3,0.7,1,0.5,1.6
		c-0.6,0.5-1.5,0.8-2.3,0.6c-0.1-0.1-0.2-0.1-0.3-0.2l0-0.6c-0.1-0.1-0.2-0.2-0.1-0.3C205.4,109.5,205.4,109.4,205.5,109.4z"/>
	<path id="Path_292" class="st254" d="M205.5,109.4c0,0.1,0,0.3,0,0.4c-0.5-0.5-1.4,0.2-1.9-0.6c-0.4-0.6-0.2-0.8,0.4-0.8
		C204.6,108.6,205.4,108.5,205.5,109.4z"/>
	<path id="Path_293" class="st255" d="M203.5,114.8c-0.1-0.8-0.6-1.6,0-2.4c0.2,0,0.3,0,0.5,0c0.2-0.1,0.4-0.1,0.6,0
		c0.2,0.3,0.3,0.6,0.3,1c-0.1,0.6-0.3,1.1-0.7,1.5C203.9,115,203.7,115,203.5,114.8z"/>
	<path id="Path_294" class="st256" d="M204.5,110.4l0.9,0h0c0.4,0.2,0.7,0.6,0.7,1.1c-0.1,0.4-0.3,0.6-0.7,0.7c-0.2,0-0.5,0-0.7,0
		c-0.2-0.1-0.4-0.2-0.5-0.4C204,111.3,204.1,110.8,204.5,110.4z"/>
	<path id="Path_295" class="st257" d="M201.5,112.4l-1.5-0.5c0.1-0.5,0.5-0.5,0.9-0.6C201.5,111.5,202.8,111.3,201.5,112.4z"/>
	<path id="Path_296" class="st258" d="M204.5,110.4l0,1.4c0.1,0.2,0.1,0.4,0,0.5c0,0,0,0,0,0c-0.2,0-0.3,0-0.5-0.1
		C203.5,111.5,203.4,110.8,204.5,110.4z"/>
	<path id="Path_297" class="st259" d="M207.4,99.7c-0.3-0.2-0.5-0.6-0.5-1c0.7,0,0.3-1.7,1.5-1.1C208.4,98.4,208,99.2,207.4,99.7z"
		/>
	<path id="Path_298" class="st260" d="M212.8,123.1c0.2,0.6,0.7,1.2,0.5,1.9c-0.5-0.3-0.7-1-1.4-1l-0.2-0.3c0-0.6,0.2-0.9,0.9-0.9
		L212.8,123.1z"/>
	<path id="Path_299" class="st261" d="M211.8,124.1c-0.2,0.6-0.8,1-1.5,1c-0.2-0.2-0.3-0.4-0.4-0.6c-0.1-0.4,0.1-0.7,0.3-1
		C211,123.2,211.4,123.5,211.8,124.1L211.8,124.1z"/>
	<path id="Path_300" class="st262" d="M210.3,124.7c0,0.1,0,0.3,0,0.4l0.5,0.5l-0.5,0.9l-1-0.4c-0.1-0.2-0.2-0.4-0.2-0.6
		c0.1-0.4,0.3-0.8,0.6-1.1C210,124.4,210.2,124.5,210.3,124.7C210.3,124.7,210.3,124.7,210.3,124.7z"/>
	<path id="Path_301" class="st263" d="M215.7,119.2c0.1,0.3,0.3,0.6,0.4,0.9c-0.8-0.1-0.9,0.9-1.5,1c-0.7,0.2-0.6-0.3-0.7-0.7
		c0.5-0.4,0.1-0.8,0-1.2c0.1-0.9,0.8-0.7,1.4-0.7C215.7,118.7,215.9,118.8,215.7,119.2z"/>
	<path id="Path_302" class="st264" d="M214.2,120.4l0.4,0.8c0,0.1,0,0.3,0,0.4c-0.1,0.1-0.2,0.1-0.4,0.2l-1.1,0
		c-0.2,0-0.4,0-0.5-0.2c0-0.4,0.2-0.9,0.5-1.1C213.5,120.2,213.8,119.8,214.2,120.4z"/>
	<path id="Path_303" class="st265" d="M215.7,119.2l-0.5-0.5c-0.5-0.2-0.9-0.5-1.2-0.9c-0.3-0.4-0.5-1-0.4-1.5
		c0.2-0.3,0.4-0.5,0.8-0.6c0.5,0,0.9,0.1,1.3,0.4c0.6,0.7,0.9,1.8,2.1,1.8c0.3,0.1,0.5,0.4,0.6,0.8c-0.2,0.4-0.7,0.7-1.1,0.6
		L215.7,119.2z"/>
	<path id="Path_304" class="st266" d="M217.1,119.3c0.2-0.4,0.6-0.6,1-0.5c0.5,0.1,0.9,0.5,1,1l-0.5,0.5
		C218.3,119.7,217.1,120.3,217.1,119.3z"/>
	<path id="Path_305" class="st267" d="M219.6,120.7l0,1.4c-0.6,0.3-0.7-0.2-1-0.5l-0.5-0.2l0.5-0.9L219.6,120.7z"/>
	<path id="Path_306" class="st268" d="M212.7,121.7c0.1,0,0.3,0.1,0.4,0.1c0,0.5,0.1,1-0.4,1.4l0,0c-0.4-0.5-1.5,0.2-1.6-0.8
		c0.1-0.5,0.5-0.8,1-0.9C212.4,121.4,212.6,121.5,212.7,121.7z"/>
	<path id="Path_307" class="st269" d="M218.6,121.7l1,0.5c0.1,0.4,0.5,0.6,0.9,0.6c-0.2,0.9-0.8,0.7-1.4,0.5L218.6,121.7z"/>
	<path id="Path_308" class="st270" d="M216.2,110.4l-0.6,0c-0.6-0.6-1.6,0.3-2-0.7c0-0.4,0.3-0.6,0.6-0.7l0.9,0
		C215.5,109.5,216.3,109.7,216.2,110.4z"/>
	<path id="Path_309" class="st271" d="M214.2,109l-0.5,0.6c-0.2,0.1-0.4,0.1-0.6,0.1c-1.4-0.7-0.8-1.2,0.1-1.7l0.1,0
		C214.1,107.8,213.8,108.8,214.2,109z"/>
	<path id="Path_310" class="st272" d="M219.1,119.8l-1-1l-0.5-0.5c-0.3-0.5,0.2-0.7,0.5-0.9c0.6-0.5,1.1-1.1,1.9-0.9
		c-0.6,0.8,0.2,1.6,0.1,2.4c0.1,0.5-0.3,1-0.8,1C219.2,119.8,219.2,119.8,219.1,119.8z"/>
	<path id="Path_311" class="st273" d="M215.3,116.2l-1-0.4c-0.4-0.1-0.7-0.5-0.7-0.9c0.1-0.4,0.3-0.8,0.5-1.1
		c0.5-0.1,0.5-0.5,0.5-0.8c0.1-0.3,0.4-0.5,0.7-0.5l1,0.4l0.5,1.5c0,0.1,0,0.2-0.1,0.3c-0.1,0.3-0.2,0.5-0.3,0.8
		C216.1,115.8,215.7,116.1,215.3,116.2z"/>
	<path id="Path_312" class="st274" d="M215.3,116.2c0.1-0.4,0.4-0.7,0.9-0.9c0.7,0.5,0.7,1.5,1.5,1.8c0.1,0.1,0.3,0.1,0.5,0.1
		l-0.5,0.9C215.7,119,215.9,117.1,215.3,116.2z"/>
	<path id="Path_313" class="st275" d="M216.7,114.4c2,0.1,0.9,1.4,0.9,2.3C215.9,116.5,216.4,115.4,216.7,114.4L216.7,114.4z"/>
	<path id="Path_314" class="st276" d="M216.7,114.4c0,0.9-0.3,1.9,0.9,2.3l0,0.5c-1.7,0.4-1.4-0.9-1.5-1.8
		C216,114.9,215.7,114.3,216.7,114.4z"/>
	<path id="Path_315" class="st277" d="M220.1,115.3c0.7-0.6,0.9,0.4,1.5,0.5c0,0.2,0,0.3,0,0.5c-0.1,0-0.3,0.1-0.4,0.1l-1-0.6
		C220.1,115.6,220.1,115.5,220.1,115.3z"/>
	<path id="Path_316" class="st278" d="M215.2,112.5l-0.5,0.4c-0.3,0.3-0.4,0.6-0.5,1c0.1,0.4-0.2,0.8-0.5,1
		c-0.2,0.2-0.3,0.3-0.5,0.4c-0.9,0.2-1.7,0.4-2.6,0.8c-0.3,0.1-0.7,0-0.9-0.3c-0.3-1.3,0.4-2,1.4-2.6c0.1-0.1,0.3-0.1,0.4-0.1
		c0.2,0,0.5,0,0-0.2c-0.8-0.3-1.1-0.7-0.8-1.6c0.3-0.4,0.7-0.6,1.2-0.7c1.3-0.1,2.2,0.8,3.3,1.2L215.2,112.5z"/>
	<path id="Path_317" class="st279" d="M215.2,111.8c-1.3,0.5-2.2-0.8-3.4-0.9c-1.3-0.2-1-1.2-1-2c0.2-0.5,0.3-1.2,1.1-1l1.3,0
		c-0.3,0.5-1,1,0.1,1.5c0,0.7,0.7,0.7,1,1L215.2,111.8z"/>
	<path id="Path_318" class="st280" d="M214.2,110.5c-0.3-0.3-2.1,0.6-1-1c0.1,0,0.3,0.1,0.4,0.1c0.4,0.9,1.6-0.1,2,0.9L214.2,110.5z
		"/>
	<path id="Path_319" class="st105" d="M211.9,108c-0.5,0.2-0.6,0.6-0.6,1c-0.2,0.2-0.4,0.2-0.6,0.1c-1.1-0.3-1.8-1.5-3.1-1.6
		c-0.5,0.1-0.9-0.1-1.2-0.5c0-0.1,0-0.2,0-0.4c0.2-0.5,0.6-1,1.1-1.1c0.1,0,0.2,0,0.3,0.1c1.7-0.1,3.1,0.7,4.7,1.1L211.9,108z"/>
	<path id="Path_320" class="st281" d="M207.5,105.5c0,0.6-0.5,1.1-1.1,1.1c-0.5-0.4-0.4-0.9-0.4-1.5
		C206.5,105.2,207.1,104.9,207.5,105.5z"/>
	<path id="Path_321" class="st282" d="M207.9,128.1l-0.5-0.1l-0.5-0.5c-0.3-0.2-0.5-0.5-0.6-0.9c-0.2-0.9,0.1-1.4,1.1-1.4
		c0.2,0.1,0.4,0.2,0.6,0.3c0.2,0.3,0.1,0.7-0.1,1C207.4,127.1,208.6,127.6,207.9,128.1z"/>
	<path id="Path_322" class="st283" d="M205,129.5c-0.7-0.4-1.3,0.1-2,0.1c0.3-0.9,1.1-0.9,1.9-1.1
		C204.9,128.8,204.9,129.1,205,129.5z"/>
	<path id="Path_323" class="st284" d="M206.8,126.4c0.1,0.3,0.1,0.7,0.2,1l-2.5,0.1l0.4-0.6C205.4,126.4,206.1,126.3,206.8,126.4z"
		/>
	<path id="Path_324" class="st285" d="M207.9,126.6c0-0.3-0.1-0.7-0.1-1c0-1,0.6-0.6,1.1-0.5c0.2,0.1,0.4,0.2,0.5,0.4
		c0,0.2,0,0.4-0.1,0.7C209.2,127.4,208.4,126.4,207.9,126.6z"/>
	<path id="Path_325" class="st286" d="M206.4,107l1.4,0.1c0.4,0.3,0.5,0.9,0.2,1.4c-0.1,0.2-0.4,0.3-0.6,0.1c0,0,0,0,0,0
		c-0.2,0-0.3,0-0.5,0l-1-1L206.4,107z"/>
	<path id="Path_326" class="st287" d="M200.5,118.3l0.5-1.1l1.1,0c0.1,0.1,0.1,0.2,0.2,0.3c0.1,0.5,0,1-0.4,1.4
		c-0.3,0.4-0.4,0.9-0.6,1.4c-0.2,0.3-0.5,0.4-0.8,0.5c-0.6-0.3-1-0.9-0.9-1.5C200.2,119.2,200.6,119,200.5,118.3z"/>
	<path id="Path_327" class="st288" d="M200.5,120.7l0.6-0.6c0.2,0,0.4,0,0.6,0.2c0.1,0.3,0.1,0.7-0.1,0.9c-0.1,0.1-0.1,0.2-0.1,0.4
		l-0.9,0.1L200.5,120.7z"/>
	<path id="Path_328" class="st285" d="M206.8,126.4c-0.5,0.5-1.2,0.7-1.9,0.5c-0.3-0.5-1.2-0.1-1.3-0.9c0.6-0.3,2.1,0.3,1.4-1.3
		c0.2-0.4,0.6-0.6,1-0.7c0.3,0,0.6,0.1,0.8,0.3c0.3,0.4,0.8,0.6,0.7,1.2C206.8,125.5,206.4,125.7,206.8,126.4z"/>
	<path id="Path_329" class="st289" d="M205.9,124.1c-0.2,0.3-0.6,0.5-1,0.5c-0.5-0.2-0.4-0.6-0.4-1c0.5-0.8-0.2-1.6,0.1-2.4v0
		c1.1-0.2,1.1,0.7,1.5,1.3c0.1,0.4,0.1,0.9-0.1,1.3C205.9,123.9,205.9,124,205.9,124.1z"/>
	<path id="Path_330" class="st290" d="M201.6,120.1l-0.2,0l-0.2,0c0-0.5-0.3-1,0.4-1.3c1,0,0.7-0.8,0.8-1.4c0.4-0.9,1.1-0.9,1.9-0.6
		c0.2,0.1,0.4,0.2,0.6,0.3c0.6,0.5,1.3,0.6,1.8,1.1c0.3,0.7,0.2,1.5-0.2,2.2c-0.2,0.1-0.4,0.2-0.6,0.2c-0.3,0-0.7-0.1-0.9-0.3
		l-0.8,0C203.2,120.8,202.3,121.1,201.6,120.1z"/>
	<path id="Path_331" class="st291" d="M204.8,120.3l1.3-0.1c0.2,0.2,0.3,0.5,0.4,0.8c0.1,0.2,0.1,0.4,0,0.6
		c-0.1,0.3-0.2,0.6-0.3,0.8c-0.1,0.2-0.3,0.3-0.5,0.3l-1.3-1.5L204.8,120.3z"/>
	<path id="Path_332" class="st292" d="M201.6,120.1c0.8,0.1,1.6,0.5,2.5,0.2l-1,1.4c-0.3-0.7-0.9-0.5-1.5-0.5L201.6,120.1z"/>
	<path id="Path_333" class="st293" d="M204.5,112.4c0-0.2,0-0.4,0.1-0.5l0.5,0c0.5,0.5,1,0.9,1.1,1.7c0.1,0.7,0.3-0.2,0.5,0
		c0.8,0,1.5,0.5,1.6,1.3c0.1,0.3,0,0.7,0,1c-0.1,0.2-0.2,0.4-0.3,0.6c-0.4,0.4-0.7,0.8-1.1,1.2c-0.2,0.1-0.4,0.2-0.6,0.2
		c-0.6-0.1-1.2-0.3-1.7-0.6l-0.1-0.1c-0.7-0.2-0.2-1.3-1-1.4l-0.6-0.1c0-0.3,0-0.6,0-0.8l0.7-0.1c0.1,0,0.3,0,0.4,0
		c0.4-0.4,0.9-0.7,0.5-1.4C204.5,113.1,204.5,112.8,204.5,112.4z"/>
	<path id="Path_334" class="st294" d="M203.4,115.8c2.2-0.8,0.3,1.2,1,1.4c-0.6,0-1.3-0.5-1.9,0c-0.2,0.3-0.3,0.3-0.5,0l0,0
		C202,116.2,203.2,116.5,203.4,115.8z"/>
	<path id="Path_335" class="st4" d="M206,111.4l-0.5-1c0.7-0.4,1.5-0.6,2.4-0.6c0.2-0.1,0.4-0.1,0.6,0c0.5,1-0.1,1.2-0.9,1.3
		c-0.4,0-0.7,0.2-1,0.4C206.3,111.5,206.1,111.5,206,111.4z"/>
	<path id="Path_336" class="st295" d="M208.4,110l-0.6-0.1l-0.4-1.3l0.5,0c1-0.2,1,0.6,1.1,1.2C208.9,109.9,208.7,110,208.4,110z"/>
	<path id="Path_337" class="st296" d="M204.5,113.5c0.5,0.1,1,0.4,0.8,1c-0.2,0.5-0.8,0.4-1.3,0.4L204.5,113.5z"/>
	<path id="Path_338" class="st297" d="M206.5,113.8c-0.1,0.1-0.2,0.8-0.4,0.3c-0.4-0.7-1.1-1.3-1-2.3c0.1,0,0.2,0,0.4,0
		c0.6,0.2,1.2,0.6,1.3,1.3C206.7,113.5,206.6,113.7,206.5,113.8z"/>
	<path id="Path_339" class="st298" d="M206.5,113.4l-1.1-1.5l0.6-0.5c0.1,0,0.2,0,0.3,0c0.2,0,0.4,0.1,0.5,0.3
		c0.3,0.4,0.4,0.8,0.4,1.2C207.1,113.2,206.9,113.4,206.5,113.4z"/>
	<path id="Path_340" class="st299" d="M211.3,122.2l1.4,0.9c-0.5,0.1-1,0.3-1,1l-1.4-0.5c-0.9-0.6-1.1-1.1-0.1-1.8
		C210.7,121.8,211.1,121.9,211.3,122.2z"/>
	<path id="Path_341" class="st300" d="M210.4,122.1c-0.8,0.5-0.2,1-0.1,1.5c0,0.3,0,0.7,0,1c-0.2,0-0.3,0-0.5-0.1
		c-0.4-0.1-0.8-0.4-1-0.7c-0.3-0.4-0.8-0.7-1.3-0.8c-0.2-0.1-0.4-0.2-0.6-0.3c-0.4-0.3-0.6-0.7-0.6-1.1c0-0.1,0-0.3,0-0.4
		c0-1,1.6-0.3,1.5-1.4c-0.2-0.6-1.2-0.8-1.1-1.7c0.3-0.5,0.8-0.8,1.4-0.7c0.3,0.1,0.6,0.2,0.9,0.4c2,0.3,1.7,1.6,1.4,3
		C210.1,121.2,210.6,121.7,210.4,122.1z"/>
	<path id="Path_342" class="st301" d="M209.3,123.6l0.5,1c0,0.3,0,0.7-0.4,0.9l-0.1,0.1c-0.3-0.3-0.6-0.6-0.8-1
		c-0.1-0.3,0-0.7,0.2-1C208.9,123.4,209.2,123.4,209.3,123.6C209.3,123.6,209.3,123.6,209.3,123.6z"/>
	<path id="Path_343" class="st302" d="M214.2,117.8c0.5,0.1,0.9,0.5,1,0.9c-0.1,0.6-1-0.2-1,0.5c-0.1,0.4-0.5,0.7-0.9,0.7
		c-0.3,0-0.6-0.3-0.6-0.6c0-0.3,0.2-0.6,0.4-0.8c0.3-0.3,0.6-0.5,0.9-0.7C214,117.8,214.1,117.8,214.2,117.8z"/>
	<path id="Path_344" class="st303" d="M213.2,119.8l1-0.5c0.3,0.3,0.6,0.7,0.1,1.1l-0.9,0.4C213,120.5,213,120.1,213.2,119.8z"/>
	<path id="Path_345" class="st304" d="M213.2,119.8c0,0.3,0.1,0.6,0.1,1l-0.5,0.9c-0.2,0-0.3,0-0.5,0c-0.3-0.2-0.6-0.2-0.8-0.5
		c-0.4-0.4-0.3-1.1,0.1-1.5c0.3-0.3,0.7-0.6,1.2-0.4L213.2,119.8z"/>
	<path id="Path_346" class="st305" d="M213.8,116.4c0.1,0.5,0.3,0.9,0.4,1.4l0,0c-0.6,0.3-1.1,0.5-1.8,0.7c-0.3,0.1-0.6,0.1-1,0
		c-0.2-0.1-0.4-0.2-0.5-0.4c-0.3-0.3-0.6-0.6-0.7-1.1c0.1-0.3,0.3-0.6,0.6-0.8c0.6-0.4,1.3-0.6,2.1-0.5
		C213.2,115.8,213.6,116.1,213.8,116.4z"/>
	<path id="Path_347" class="st306" d="M213.8,116.4l-0.9-0.1c-0.2-0.1-0.3-0.3-0.3-0.5c0.1-0.4,0.4-0.7,0.7-0.9c0.1,0,0.3,0,0.4,0
		l0.6,0.9L213.8,116.4z"/>
	<path id="Path_348" class="st307" d="M211.8,121.1l0.4,0.6l-0.9,0.5l-1-0.1c0-0.3-0.6-0.6-0.1-1
		C210.8,120.8,211.4,120.8,211.8,121.1z"/>
	<path id="Path_349" class="st308" d="M214.2,113.9c-0.8-0.8-0.3-1,0.5-1c0.2,0.5,0.7,0.9,0.4,1.5L214.2,113.9z"/>
	<path id="Path_350" class="st309" d="M208.9,110l-1-1.5c0-0.5,0-1,0-1.4c0.8-0.1,1.8,0.6,2.9,1.9c-0.1,0.8,0.3,1.7,0.2,2.5
		c-0.1,1.3,1.5,1.1,1.8,2.2l-1.4-0.2c-0.7,0.2-1.4-0.1-1.7-0.7c-0.3-0.8-0.2-1.6-0.6-2.4C208.9,110.1,208.9,110,208.9,110z"/>
	<path id="Path_351" class="st310" d="M209.8,112.4l1.5,1c-0.6,0.7-1.5,1.3-1.4,2.4c-0.2,0.2-0.4,0.3-0.6,0.3
		c-0.2,0-0.4-0.1-0.6-0.3c-0.1-0.2-0.2-0.4-0.2-0.6c0-0.5-0.1-0.9-0.2-1.3c-0.1-0.7-0.4-1.4,0.1-2
		C209.1,111.4,209.5,111.8,209.8,112.4z"/>
	<path id="Path_352" class="st311" d="M209.3,115.8l0.6,0l0.9,0l0.2,0.2c0.1,0.3,0,0.6-0.2,0.7l-0.5,0.5c-0.5,0.5-1.3,0.7-1.9,0.3
		c-0.7-0.2-0.9-0.6-0.6-1.2l0.2,0c0.1-0.2,0.3-0.4,0.6-0.3C208.9,116.1,209.1,116.1,209.3,115.8z"/>
	<path id="Path_353" class="st312" d="M210.9,111.4c-0.4-0.8-1.3-1.6-0.2-2.5l0.6,0.1c0.1,0.7-0.2,1.5,0.5,2
		C211.6,111.3,211.2,111.4,210.9,111.4z"/>
	<path id="Path_354" class="st313" d="M213.3,114.9c0,0.4-0.2,0.7-0.5,0.9c-0.6,0.3-1.3,0.4-2,0.1v0
		C211.1,114.3,212.5,115.4,213.3,114.9z"/>
	<path id="Path_355" class="st314" d="M208.9,124.6c0.4,0.2,0.4,0.6,0.5,1c-0.5,0.2-1-0.7-1.5,0c-0.1,0-0.3,0-0.4-0.1l-1-0.8
		c0.2-0.3,0.6-0.6,1-0.6C208,124,208.5,124.2,208.9,124.6z"/>
	<path id="Path_356" class="st248" d="M202.1,117.2c0.2,0,0.3,0,0.5,0c-0.3,0.7,1,1.2,0.4,1.9c-0.4,0.4-1,0.2-1.4-0.3L202.1,117.2z"
		/>
	<path id="Path_357" class="st315" d="M207.3,124.6l-0.9,0.1l-0.5-0.6l0,0c-0.1-1,0.6-1.1,1.3-1.2c0.3,0.1,0.6,0.3,0.8,0.6
		C208.1,124.1,207.8,124.3,207.3,124.6z"/>
	<path id="Path_358" class="st316" d="M207.3,123.1l-1.4,1.1c-0.8-0.4-0.1-0.9,0-1.4l0.1-0.2c0.4-0.3,1-0.3,1.4,0.1l0,0
		c0.1,0.1,0.2,0.2,0.1,0.3C207.4,123,207.4,123.1,207.3,123.1z"/>
	<path id="Path_359" class="st317" d="M208.3,119.6c0.8,0.9,1,1.5-0.6,1.4c-0.4,0-0.9,0-1.3,0.2c-0.3-0.2-0.4-0.6-0.2-1l0.2,0
		C206.8,119.4,207.4,119.1,208.3,119.6z"/>
	<path id="Path_360" class="st318" d="M208.3,119.6l-1.9,0.6c-0.5-0.7,0-1.3-0.1-2c-0.1-0.1-0.1-0.2-0.1-0.3c0-0.1,0.1-0.1,0.1-0.1
		l0.2,0c0.3,0,0.6,0.1,0.4,0.5C207.1,119,208.4,118.6,208.3,119.6z"/>
	<path id="Path_361" class="st319" d="M206.3,117.8c0,0.2,0,0.3,0,0.5c-0.7,0.2-1.5-0.2-1.8-0.9
		C205.1,117.2,205.8,117.4,206.3,117.8z"/>
	<path id="Path_362" class="st320" d="M207.4,122.7l-1.4-0.1c-0.1-0.4,0.1-0.8,0.4-1L207.4,122.7z"/>
	<path id="Path_363" class="st321" d="M208.9,113.9l0,1.4c-0.2,0.3-0.6,0.3-0.9,0c0,0,0,0,0,0c0-0.9-0.9-1.1-1.5-1.5
		c0-0.2,0-0.3,0-0.5l0.4-0.7c0.3-0.2,0.6-0.2,0.9,0C208.3,113,208.5,113.5,208.9,113.9z"/>
	<path id="Path_364" class="st322" d="M206.9,118.3l-0.4-0.5c0.3-0.6,0.3-1.5,1.3-1.5c0.1,0.4,0,0.9,0.5,1.2l0,0.1L206.9,118.3z"/>
	<path id="Path_365" class="st323" d="M207.9,115.4l0.9,0c0,0.2,0,0.3,0,0.5c0.1,0.1,0.2,0.2,0.1,0.4c-0.1,0.1-0.1,0.2-0.2,0.2h-0.7
		C208,116,208,115.7,207.9,115.4z"/>
	<path id="Path_366" class="st324" d="M208.9,113.9c-0.5,0.1-1-0.3-1-0.8c0-0.1,0-0.2,0-0.3c-0.6-0.4-1-0.9-1.5-1.5l-0.2,0
		c0.1-0.4,0.3-0.8,0.7-0.9c0.5,0.4,1.1,0.5,1.5,0.9c0.1,0.2,0,0.4-0.1,0.5L208.9,113.9z"/>
	<path id="Path_367" class="st325" d="M208.4,111.5c-0.6,0-1.2-0.4-1.4-1c0.5-0.2,1.4,0.7,1.5-0.5c0.1,0,0.3,0,0.4,0l0,0
		C209.8,110.8,209.7,111.3,208.4,111.5z"/>
	<path id="Path_368" class="st326" d="M206.4,111.4c0.6,0.4,1.5,0.4,1.5,1.5l-0.9-0.2C206.5,112.4,206.4,111.9,206.4,111.4z"/>
	<path id="Path_369" class="st327" d="M211.8,121.1l-1.5,0c0.4-0.5-1.1-0.7,0-1.7c0.8-0.7-1.6-0.1-1.4-1.3c0.6-1.3,1.6-0.4,2.4-0.5
		c0,0.2,0,0.4,0,0.5c0.4,0.5,0.9,0.9,0.5,1.7C211.5,120.2,211.5,120.7,211.8,121.1C211.8,121,211.8,121.1,211.8,121.1z"/>
	<path id="Path_370" class="st328" d="M207.3,123.1c0-0.1,0.1-0.3,0.1-0.4c0.8,0,1.6,0.1,1.9,1h-0.5c-0.2,0.3-0.6,0.3-0.8,0.1
		c0,0,0,0-0.1-0.1L207.3,123.1z"/>
	<path id="Path_371" class="st329" d="M211.3,117.7c-0.8,0.2-1.7-0.1-2.4,0.5l-0.5-0.6l0-0.1l1.9-0.2L211.3,117.7z"/>
	<path id="Path_372" class="st330" d="M207.9,123.7l0.9,0c0,0.3,0.1,0.6,0.1,0.9l-1.6,0L207.9,123.7z"/>
	<path id="Path_373" class="st331" d="M211.9,119.9c-0.2-0.6-0.4-1.1-0.5-1.7l1,0c0.7-0.3,1.1-0.2,0.9,0.7l-0.6,0.4L211.9,119.9z"/>
	<path id="Path_374" class="st332" d="M213.3,118.9c-0.1-0.4-0.5-0.7-0.9-0.7c0.4-0.9,1.2-0.4,1.8-0.4L213.3,118.9z"/>
	<path id="Path_375" class="st333" d="M210.8,115.9l2-0.1c0.1,0.2,0.1,0.3,0.1,0.5c-0.7,0-1.4,0.1-2.1,0.5
		C210.8,116.5,210.8,116.2,210.8,115.9z"/>
	<path id="Path_376" class="st334" d="M208.4,111.5c0.5-0.1,0.8-0.6,0.7-1.1c0-0.1-0.1-0.3-0.2-0.4c1.5,0.4,0.8,1.6,1,2.5l-1.4-0.5
		C208.4,111.8,208.4,111.6,208.4,111.5z"/>
	<path id="Path_377" class="st335" d="M208.8,116.3c0-0.2,0-0.3,0.1-0.5c0.1,0,0.3,0,0.4,0L208.8,116.3z"/>
</g>
</svg>
